<svg width="44" height="44" viewBox="0 0 44 44" fill="none" xmlns="http://www.w3.org/2000/svg">
<ellipse cx="22.2817" cy="22" rx="19.9965" ry="20" stroke="#53A8CB" stroke-width="3"/>
<path d="M11.8305 15.377H17.3481C17.9861 15.377 18.5558 15.4681 19.0571 15.6504C19.5649 15.8327 19.9913 16.0801 20.3364 16.3926C20.688 16.6986 20.9549 17.0566 21.1372 17.4668C21.326 17.877 21.4204 18.3132 21.4204 18.7754C21.4204 19.3483 21.2902 19.8822 21.0298 20.377C20.7759 20.8652 20.3885 21.3047 19.8677 21.6953C20.2843 21.8711 20.6391 22.0827 20.9321 22.3301C21.2251 22.571 21.4627 22.8379 21.645 23.1309C21.8338 23.4173 21.9705 23.7233 22.0552 24.0488C22.1463 24.3743 22.1919 24.7064 22.1919 25.0449C22.1919 25.5918 22.0747 26.1061 21.8403 26.5879C21.6059 27.0697 21.2902 27.4896 20.893 27.8477C20.5024 28.1992 20.0499 28.4792 19.5356 28.6875C19.0213 28.8958 18.4874 29 17.9341 29H11.8305V15.377ZM14.1352 20.8066H17.0259C17.3449 20.8066 17.6378 20.7578 17.9048 20.6602C18.1782 20.556 18.4126 20.4193 18.6079 20.25C18.8032 20.0742 18.9529 19.8724 19.0571 19.6445C19.1678 19.4102 19.2231 19.166 19.2231 18.9121C19.2231 18.6777 19.1841 18.4661 19.1059 18.2773C19.0278 18.082 18.9074 17.9128 18.7446 17.7695C18.5884 17.6263 18.3865 17.5156 18.1391 17.4375C17.8917 17.3594 17.602 17.3203 17.27 17.3203H14.1352V20.8066ZM14.1352 27.0273H17.3579C17.6509 27.0273 17.9438 26.9883 18.2368 26.9102C18.5363 26.832 18.8032 26.7116 19.0376 26.5488C19.2785 26.3796 19.4738 26.168 19.6235 25.9141C19.7732 25.6536 19.8481 25.3411 19.8481 24.9766C19.8481 24.6771 19.7798 24.3906 19.643 24.1172C19.5063 23.8438 19.3078 23.6061 19.0473 23.4043C18.7934 23.2025 18.4809 23.043 18.1098 22.9258C17.7387 22.8021 17.3221 22.7402 16.8598 22.7402H14.1352V27.0273ZM26.02 24.6445C26.0591 25.0026 26.1437 25.3444 26.2739 25.6699C26.4041 25.9889 26.5701 26.2721 26.7719 26.5195C26.9738 26.7604 27.2081 26.9525 27.4751 27.0957C27.742 27.2389 28.0285 27.3105 28.3344 27.3105C28.9009 27.3105 29.3696 27.1576 29.7407 26.8516C30.1183 26.5391 30.4178 26.0736 30.6391 25.4551H32.768C32.6378 26.0475 32.4262 26.5749 32.1333 27.0371C31.8468 27.4993 31.505 27.89 31.1079 28.209C30.7107 28.528 30.2713 28.7721 29.7895 28.9414C29.3143 29.1107 28.8227 29.1953 28.3149 29.1953C27.5988 29.1953 26.9542 29.0521 26.3813 28.7656C25.8084 28.4792 25.3201 28.0951 24.9165 27.6133C24.5128 27.1315 24.2003 26.5716 23.979 25.9336C23.7641 25.2891 23.6567 24.612 23.6567 23.9023C23.6567 23.2383 23.7641 22.6035 23.979 21.998C24.2003 21.3861 24.5128 20.849 24.9165 20.3867C25.3201 19.918 25.8084 19.5469 26.3813 19.2734C26.9607 19 27.6085 18.8633 28.3247 18.8633C29.0148 18.8633 29.6398 18.987 30.1997 19.2344C30.7596 19.4818 31.2381 19.8268 31.6352 20.2695C32.0324 20.7057 32.3351 21.2233 32.5434 21.8223C32.7583 22.4147 32.8657 23.056 32.8657 23.7461V24.6445H26.02ZM30.5219 22.8965C30.4829 22.584 30.4015 22.3008 30.2778 22.0469C30.1606 21.793 30.0044 21.5749 29.8091 21.3926C29.6137 21.2038 29.3826 21.0605 29.1157 20.9629C28.8488 20.8587 28.5558 20.8066 28.2368 20.8066C27.9438 20.8066 27.6704 20.862 27.4165 20.9727C27.1691 21.0833 26.9477 21.2331 26.7524 21.4219C26.5636 21.6107 26.4041 21.832 26.2739 22.0859C26.1502 22.3398 26.0656 22.61 26.02 22.8965H30.5219Z" fill="#53A8CB"/>
<rect x="25.2811" y="16" width="5.99896" height="2" fill="#53A8CB"/>
</svg>
