<svg width="356" height="85" viewBox="0 0 356 85" fill="none" xmlns="http://www.w3.org/2000/svg">
<rect x="0.174072" width="4" height="4" rx="2" fill="#EAEAEA"/>
<rect x="9.17249" width="4" height="4" rx="2" fill="#EAEAEA"/>
<rect x="18.1709" width="4" height="4" rx="2" fill="#EAEAEA"/>
<rect x="27.1693" width="4" height="4" rx="2" fill="#EAEAEA"/>
<rect x="36.1678" width="4" height="4" rx="2" fill="#EAEAEA"/>
<rect x="45.1663" width="4" height="4" rx="2" fill="#EAEAEA"/>
<rect x="54.1647" width="4" height="4" rx="2" fill="#EAEAEA"/>
<rect x="63.1631" width="4" height="4" rx="2" fill="#EAEAEA"/>
<rect x="72.1615" width="4" height="4" rx="2" fill="#EAEAEA"/>
<rect x="81.16" width="4" height="4" rx="2" fill="#EAEAEA"/>
<rect x="90.1584" width="4" height="4" rx="2" fill="#EAEAEA"/>
<rect x="99.1569" width="4" height="4" rx="2" fill="#EAEAEA"/>
<rect x="108.155" width="4" height="4" rx="2" fill="#EAEAEA"/>
<rect x="117.154" width="4" height="4" rx="2" fill="#EAEAEA"/>
<rect x="126.152" width="4" height="4" rx="2" fill="#EAEAEA"/>
<rect x="135.151" width="4" height="4" rx="2" fill="#EAEAEA"/>
<rect x="144.149" width="4" height="4" rx="2" fill="#EAEAEA"/>
<rect x="153.147" width="4" height="4" rx="2" fill="#EAEAEA"/>
<rect x="162.146" width="4" height="4" rx="2" fill="#EAEAEA"/>
<rect x="171.144" width="4" height="4" rx="2" fill="#EAEAEA"/>
<rect x="180.143" width="4" height="4" rx="2" fill="#EAEAEA"/>
<rect x="189.141" width="4" height="4" rx="2" fill="#EAEAEA"/>
<rect x="198.14" width="4" height="4" rx="2" fill="#EAEAEA"/>
<rect x="207.138" width="4" height="4" rx="2" fill="#EAEAEA"/>
<rect x="216.137" width="4" height="4" rx="2" fill="#EAEAEA"/>
<rect x="225.135" width="4" height="4" rx="2" fill="#EAEAEA"/>
<rect x="234.133" width="4" height="4" rx="2" fill="#EAEAEA"/>
<rect x="243.132" width="4" height="4" rx="2" fill="#EAEAEA"/>
<rect x="252.13" width="4" height="4" rx="2" fill="#EAEAEA"/>
<rect x="261.129" width="4" height="4" rx="2" fill="#EAEAEA"/>
<rect x="270.127" width="4" height="4" rx="2" fill="#EAEAEA"/>
<rect x="279.126" width="4" height="4" rx="2" fill="#EAEAEA"/>
<rect x="288.124" width="4" height="4" rx="2" fill="#EAEAEA"/>
<rect x="297.122" width="4" height="4" rx="2" fill="#EAEAEA"/>
<rect x="306.121" width="4" height="4" rx="2" fill="#EAEAEA"/>
<rect x="315.119" width="4" height="4" rx="2" fill="#EAEAEA"/>
<rect x="324.118" width="4" height="4" rx="2" fill="#EAEAEA"/>
<rect x="333.116" width="4" height="4" rx="2" fill="#EAEAEA"/>
<rect x="342.115" width="4" height="4" rx="2" fill="#EAEAEA"/>
<rect x="351.113" width="4" height="4" rx="2" fill="#EAEAEA"/>
<rect x="0.174072" y="9" width="4" height="4" rx="2" fill="#EAEAEA"/>
<rect x="9.17249" y="9" width="4" height="4" rx="2" fill="#EAEAEA"/>
<rect x="18.1709" y="9" width="4" height="4" rx="2" fill="#EAEAEA"/>
<rect x="27.1693" y="9" width="4" height="4" rx="2" fill="#EAEAEA"/>
<rect x="36.1678" y="9" width="4" height="4" rx="2" fill="#EAEAEA"/>
<rect x="45.1663" y="9" width="4" height="4" rx="2" fill="#EAEAEA"/>
<rect x="54.1647" y="9" width="4" height="4" rx="2" fill="#EAEAEA"/>
<rect x="63.1631" y="9" width="4" height="4" rx="2" fill="#EAEAEA"/>
<rect x="72.1615" y="9" width="4" height="4" rx="2" fill="#EAEAEA"/>
<rect x="81.16" y="9" width="4" height="4" rx="2" fill="#EAEAEA"/>
<rect x="90.1584" y="9" width="4" height="4" rx="2" fill="#EAEAEA"/>
<rect x="99.1569" y="9" width="4" height="4" rx="2" fill="#EAEAEA"/>
<rect x="108.155" y="9" width="4" height="4" rx="2" fill="#EAEAEA"/>
<rect x="117.154" y="9" width="4" height="4" rx="2" fill="#EAEAEA"/>
<rect x="126.152" y="9" width="4" height="4" rx="2" fill="#EAEAEA"/>
<rect x="135.151" y="9" width="4" height="4" rx="2" fill="#EAEAEA"/>
<rect x="144.149" y="9" width="4" height="4" rx="2" fill="#EAEAEA"/>
<rect x="153.147" y="9" width="4" height="4" rx="2" fill="#EAEAEA"/>
<rect x="162.146" y="9" width="4" height="4" rx="2" fill="#EAEAEA"/>
<rect x="171.144" y="9" width="4" height="4" rx="2" fill="#EAEAEA"/>
<rect x="180.143" y="9" width="4" height="4" rx="2" fill="#EAEAEA"/>
<rect x="189.141" y="9" width="4" height="4" rx="2" fill="#EAEAEA"/>
<rect x="198.14" y="9" width="4" height="4" rx="2" fill="#EAEAEA"/>
<rect x="207.138" y="9" width="4" height="4" rx="2" fill="#EAEAEA"/>
<rect x="216.137" y="9" width="4" height="4" rx="2" fill="#EAEAEA"/>
<rect x="225.135" y="9" width="4" height="4" rx="2" fill="#EAEAEA"/>
<rect x="234.133" y="9" width="4" height="4" rx="2" fill="#EAEAEA"/>
<rect x="243.132" y="9" width="4" height="4" rx="2" fill="#EAEAEA"/>
<rect x="252.13" y="9" width="4" height="4" rx="2" fill="#EAEAEA"/>
<rect x="261.129" y="9" width="4" height="4" rx="2" fill="#EAEAEA"/>
<rect x="270.127" y="9" width="4" height="4" rx="2" fill="#EAEAEA"/>
<rect x="279.126" y="9" width="4" height="4" rx="2" fill="#EAEAEA"/>
<rect x="288.124" y="9" width="4" height="4" rx="2" fill="#EAEAEA"/>
<rect x="297.122" y="9" width="4" height="4" rx="2" fill="#EAEAEA"/>
<rect x="306.121" y="9" width="4" height="4" rx="2" fill="#EAEAEA"/>
<rect x="315.119" y="9" width="4" height="4" rx="2" fill="#EAEAEA"/>
<rect x="324.118" y="9" width="4" height="4" rx="2" fill="#EAEAEA"/>
<rect x="333.116" y="9" width="4" height="4" rx="2" fill="#EAEAEA"/>
<rect x="342.115" y="9" width="4" height="4" rx="2" fill="#EAEAEA"/>
<rect x="351.113" y="9" width="4" height="4" rx="2" fill="#EAEAEA"/>
<rect x="0.174072" y="18" width="4" height="4" rx="2" fill="#EAEAEA"/>
<rect x="9.17249" y="18" width="4" height="4" rx="2" fill="#EAEAEA"/>
<rect x="18.1709" y="18" width="4" height="4" rx="2" fill="#EAEAEA"/>
<rect x="27.1693" y="18" width="4" height="4" rx="2" fill="#EAEAEA"/>
<rect x="36.1678" y="18" width="4" height="4" rx="2" fill="#EAEAEA"/>
<rect x="45.1663" y="18" width="4" height="4" rx="2" fill="#EAEAEA"/>
<rect x="54.1647" y="18" width="4" height="4" rx="2" fill="#EAEAEA"/>
<rect x="63.1631" y="18" width="4" height="4" rx="2" fill="#EAEAEA"/>
<rect x="72.1615" y="18" width="4" height="4" rx="2" fill="#EAEAEA"/>
<rect x="81.16" y="18" width="4" height="4" rx="2" fill="#EAEAEA"/>
<rect x="90.1584" y="18" width="4" height="4" rx="2" fill="#EAEAEA"/>
<rect x="99.1569" y="18" width="4" height="4" rx="2" fill="#EAEAEA"/>
<rect x="108.155" y="18" width="4" height="4" rx="2" fill="#EAEAEA"/>
<rect x="117.154" y="18" width="4" height="4" rx="2" fill="#EAEAEA"/>
<rect x="126.152" y="18" width="4" height="4" rx="2" fill="#EAEAEA"/>
<rect x="135.151" y="18" width="4" height="4" rx="2" fill="#EAEAEA"/>
<rect x="144.149" y="18" width="4" height="4" rx="2" fill="#EAEAEA"/>
<rect x="153.147" y="18" width="4" height="4" rx="2" fill="#EAEAEA"/>
<rect x="162.146" y="18" width="4" height="4" rx="2" fill="#EAEAEA"/>
<rect x="171.144" y="18" width="4" height="4" rx="2" fill="#EAEAEA"/>
<rect x="180.143" y="18" width="4" height="4" rx="2" fill="#EAEAEA"/>
<rect x="189.141" y="18" width="4" height="4" rx="2" fill="#EAEAEA"/>
<rect x="198.14" y="18" width="4" height="4" rx="2" fill="#EAEAEA"/>
<rect x="207.138" y="18" width="4" height="4" rx="2" fill="#EAEAEA"/>
<rect x="216.137" y="18" width="4" height="4" rx="2" fill="#EAEAEA"/>
<rect x="225.135" y="18" width="4" height="4" rx="2" fill="#EAEAEA"/>
<rect x="234.133" y="18" width="4" height="4" rx="2" fill="#EAEAEA"/>
<rect x="243.132" y="18" width="4" height="4" rx="2" fill="#EAEAEA"/>
<rect x="252.13" y="18" width="4" height="4" rx="2" fill="#EAEAEA"/>
<rect x="261.129" y="18" width="4" height="4" rx="2" fill="#EAEAEA"/>
<rect x="270.127" y="18" width="4" height="4" rx="2" fill="#EAEAEA"/>
<rect x="279.126" y="18" width="4" height="4" rx="2" fill="#EAEAEA"/>
<rect x="288.124" y="18" width="4" height="4" rx="2" fill="#EAEAEA"/>
<rect x="297.122" y="18" width="4" height="4" rx="2" fill="#EAEAEA"/>
<rect x="306.121" y="18" width="4" height="4" rx="2" fill="#EAEAEA"/>
<rect x="315.119" y="18" width="4" height="4" rx="2" fill="#EAEAEA"/>
<rect x="324.118" y="18" width="4" height="4" rx="2" fill="#EAEAEA"/>
<rect x="333.116" y="18" width="4" height="4" rx="2" fill="#EAEAEA"/>
<rect x="342.115" y="18" width="4" height="4" rx="2" fill="#EAEAEA"/>
<rect x="351.113" y="18" width="4" height="4" rx="2" fill="#EAEAEA"/>
<rect x="0.174072" y="27" width="4" height="4" rx="2" fill="#EAEAEA"/>
<rect x="9.17249" y="27" width="4" height="4" rx="2" fill="#EAEAEA"/>
<rect x="18.1709" y="27" width="4" height="4" rx="2" fill="#EAEAEA"/>
<rect x="27.1693" y="27" width="4" height="4" rx="2" fill="#EAEAEA"/>
<rect x="36.1678" y="27" width="4" height="4" rx="2" fill="#EAEAEA"/>
<rect x="45.1663" y="27" width="4" height="4" rx="2" fill="#EAEAEA"/>
<rect x="54.1647" y="27" width="4" height="4" rx="2" fill="#EAEAEA"/>
<rect x="63.1631" y="27" width="4" height="4" rx="2" fill="#EAEAEA"/>
<rect x="72.1615" y="27" width="4" height="4" rx="2" fill="#EAEAEA"/>
<rect x="81.16" y="27" width="4" height="4" rx="2" fill="#EAEAEA"/>
<rect x="90.1584" y="27" width="4" height="4" rx="2" fill="#EAEAEA"/>
<rect x="99.1569" y="27" width="4" height="4" rx="2" fill="#EAEAEA"/>
<rect x="108.155" y="27" width="4" height="4" rx="2" fill="#EAEAEA"/>
<rect x="117.154" y="27" width="4" height="4" rx="2" fill="#EAEAEA"/>
<rect x="126.152" y="27" width="4" height="4" rx="2" fill="#EAEAEA"/>
<rect x="135.151" y="27" width="4" height="4" rx="2" fill="#EAEAEA"/>
<rect x="144.149" y="27" width="4" height="4" rx="2" fill="#EAEAEA"/>
<rect x="153.147" y="27" width="4" height="4" rx="2" fill="#EAEAEA"/>
<rect x="162.146" y="27" width="4" height="4" rx="2" fill="#EAEAEA"/>
<rect x="171.144" y="27" width="4" height="4" rx="2" fill="#EAEAEA"/>
<rect x="180.143" y="27" width="4" height="4" rx="2" fill="#EAEAEA"/>
<rect x="189.141" y="27" width="4" height="4" rx="2" fill="#EAEAEA"/>
<rect x="198.14" y="27" width="4" height="4" rx="2" fill="#EAEAEA"/>
<rect x="207.138" y="27" width="4" height="4" rx="2" fill="#EAEAEA"/>
<rect x="216.137" y="27" width="4" height="4" rx="2" fill="#EAEAEA"/>
<rect x="225.135" y="27" width="4" height="4" rx="2" fill="#EAEAEA"/>
<rect x="234.133" y="27" width="4" height="4" rx="2" fill="#EAEAEA"/>
<rect x="243.132" y="27" width="4" height="4" rx="2" fill="#EAEAEA"/>
<rect x="252.13" y="27" width="4" height="4" rx="2" fill="#EAEAEA"/>
<rect x="261.129" y="27" width="4" height="4" rx="2" fill="#EAEAEA"/>
<rect x="270.127" y="27" width="4" height="4" rx="2" fill="#EAEAEA"/>
<rect x="279.126" y="27" width="4" height="4" rx="2" fill="#EAEAEA"/>
<rect x="288.124" y="27" width="4" height="4" rx="2" fill="#EAEAEA"/>
<rect x="297.122" y="27" width="4" height="4" rx="2" fill="#EAEAEA"/>
<rect x="306.121" y="27" width="4" height="4" rx="2" fill="#EAEAEA"/>
<rect x="315.119" y="27" width="4" height="4" rx="2" fill="#EAEAEA"/>
<rect x="324.118" y="27" width="4" height="4" rx="2" fill="#EAEAEA"/>
<rect x="333.116" y="27" width="4" height="4" rx="2" fill="#EAEAEA"/>
<rect x="342.115" y="27" width="4" height="4" rx="2" fill="#EAEAEA"/>
<rect x="351.113" y="27" width="4" height="4" rx="2" fill="#EAEAEA"/>
<rect x="0.174072" y="36" width="4" height="4" rx="2" fill="#EAEAEA"/>
<rect x="9.17249" y="36" width="4" height="4" rx="2" fill="#EAEAEA"/>
<rect x="18.1709" y="36" width="4" height="4" rx="2" fill="#EAEAEA"/>
<rect x="27.1693" y="36" width="4" height="4" rx="2" fill="#EAEAEA"/>
<rect x="36.1678" y="36" width="4" height="4" rx="2" fill="#EAEAEA"/>
<rect x="45.1663" y="36" width="4" height="4" rx="2" fill="#EAEAEA"/>
<rect x="54.1647" y="36" width="4" height="4" rx="2" fill="#EAEAEA"/>
<rect x="63.1631" y="36" width="4" height="4" rx="2" fill="#EAEAEA"/>
<rect x="72.1615" y="36" width="4" height="4" rx="2" fill="#EAEAEA"/>
<rect x="81.16" y="36" width="4" height="4" rx="2" fill="#EAEAEA"/>
<rect x="90.1584" y="36" width="4" height="4" rx="2" fill="#EAEAEA"/>
<rect x="99.1569" y="36" width="4" height="4" rx="2" fill="#EAEAEA"/>
<rect x="108.155" y="36" width="4" height="4" rx="2" fill="#EAEAEA"/>
<rect x="117.154" y="36" width="4" height="4" rx="2" fill="#EAEAEA"/>
<rect x="126.152" y="36" width="4" height="4" rx="2" fill="#EAEAEA"/>
<rect x="135.151" y="36" width="4" height="4" rx="2" fill="#EAEAEA"/>
<rect x="144.149" y="36" width="4" height="4" rx="2" fill="#EAEAEA"/>
<rect x="153.147" y="36" width="4" height="4" rx="2" fill="#EAEAEA"/>
<rect x="162.146" y="36" width="4" height="4" rx="2" fill="#EAEAEA"/>
<rect x="171.144" y="36" width="4" height="4" rx="2" fill="#EAEAEA"/>
<rect x="180.143" y="36" width="4" height="4" rx="2" fill="#EAEAEA"/>
<rect x="189.141" y="36" width="4" height="4" rx="2" fill="#EAEAEA"/>
<rect x="198.14" y="36" width="4" height="4" rx="2" fill="#EAEAEA"/>
<rect x="207.138" y="36" width="4" height="4" rx="2" fill="#EAEAEA"/>
<rect x="216.137" y="36" width="4" height="4" rx="2" fill="#EAEAEA"/>
<rect x="225.135" y="36" width="4" height="4" rx="2" fill="#EAEAEA"/>
<rect x="234.133" y="36" width="4" height="4" rx="2" fill="#EAEAEA"/>
<rect x="243.132" y="36" width="4" height="4" rx="2" fill="#EAEAEA"/>
<rect x="252.13" y="36" width="4" height="4" rx="2" fill="#EAEAEA"/>
<rect x="261.129" y="36" width="4" height="4" rx="2" fill="#EAEAEA"/>
<rect x="270.127" y="36" width="4" height="4" rx="2" fill="#EAEAEA"/>
<rect x="279.126" y="36" width="4" height="4" rx="2" fill="#EAEAEA"/>
<rect x="288.124" y="36" width="4" height="4" rx="2" fill="#EAEAEA"/>
<rect x="297.122" y="36" width="4" height="4" rx="2" fill="#EAEAEA"/>
<rect x="306.121" y="36" width="4" height="4" rx="2" fill="#EAEAEA"/>
<rect x="315.119" y="36" width="4" height="4" rx="2" fill="#EAEAEA"/>
<rect x="324.118" y="36" width="4" height="4" rx="2" fill="#EAEAEA"/>
<rect x="333.116" y="36" width="4" height="4" rx="2" fill="#EAEAEA"/>
<rect x="342.115" y="36" width="4" height="4" rx="2" fill="#EAEAEA"/>
<rect x="351.113" y="36" width="4" height="4" rx="2" fill="#EAEAEA"/>
<rect x="0.174072" y="45" width="4" height="4" rx="2" fill="#EAEAEA"/>
<rect x="9.17249" y="45" width="4" height="4" rx="2" fill="#EAEAEA"/>
<rect x="18.1709" y="45" width="4" height="4" rx="2" fill="#EAEAEA"/>
<rect x="27.1693" y="45" width="4" height="4" rx="2" fill="#EAEAEA"/>
<rect x="36.1678" y="45" width="4" height="4" rx="2" fill="#EAEAEA"/>
<rect x="45.1663" y="45" width="4" height="4" rx="2" fill="#EAEAEA"/>
<rect x="54.1647" y="45" width="4" height="4" rx="2" fill="#EAEAEA"/>
<rect x="63.1631" y="45" width="4" height="4" rx="2" fill="#EAEAEA"/>
<rect x="72.1615" y="45" width="4" height="4" rx="2" fill="#EAEAEA"/>
<rect x="81.16" y="45" width="4" height="4" rx="2" fill="#EAEAEA"/>
<rect x="90.1584" y="45" width="4" height="4" rx="2" fill="#EAEAEA"/>
<rect x="99.1569" y="45" width="4" height="4" rx="2" fill="#EAEAEA"/>
<rect x="108.155" y="45" width="4" height="4" rx="2" fill="#EAEAEA"/>
<rect x="117.154" y="45" width="4" height="4" rx="2" fill="#EAEAEA"/>
<rect x="126.152" y="45" width="4" height="4" rx="2" fill="#EAEAEA"/>
<rect x="135.151" y="45" width="4" height="4" rx="2" fill="#EAEAEA"/>
<rect x="144.149" y="45" width="4" height="4" rx="2" fill="#EAEAEA"/>
<rect x="153.147" y="45" width="4" height="4" rx="2" fill="#EAEAEA"/>
<rect x="162.146" y="45" width="4" height="4" rx="2" fill="#EAEAEA"/>
<rect x="171.144" y="45" width="4" height="4" rx="2" fill="#EAEAEA"/>
<rect x="180.143" y="45" width="4" height="4" rx="2" fill="#EAEAEA"/>
<rect x="189.141" y="45" width="4" height="4" rx="2" fill="#EAEAEA"/>
<rect x="198.14" y="45" width="4" height="4" rx="2" fill="#EAEAEA"/>
<rect x="207.138" y="45" width="4" height="4" rx="2" fill="#EAEAEA"/>
<rect x="216.137" y="45" width="4" height="4" rx="2" fill="#EAEAEA"/>
<rect x="225.135" y="45" width="4" height="4" rx="2" fill="#EAEAEA"/>
<rect x="234.133" y="45" width="4" height="4" rx="2" fill="#EAEAEA"/>
<rect x="243.132" y="45" width="4" height="4" rx="2" fill="#EAEAEA"/>
<rect x="252.13" y="45" width="4" height="4" rx="2" fill="#EAEAEA"/>
<rect x="261.129" y="45" width="4" height="4" rx="2" fill="#EAEAEA"/>
<rect x="270.127" y="45" width="4" height="4" rx="2" fill="#EAEAEA"/>
<rect x="279.126" y="45" width="4" height="4" rx="2" fill="#EAEAEA"/>
<rect x="288.124" y="45" width="4" height="4" rx="2" fill="#EAEAEA"/>
<rect x="297.122" y="45" width="4" height="4" rx="2" fill="#EAEAEA"/>
<rect x="306.121" y="45" width="4" height="4" rx="2" fill="#EAEAEA"/>
<rect x="315.119" y="45" width="4" height="4" rx="2" fill="#EAEAEA"/>
<rect x="324.118" y="45" width="4" height="4" rx="2" fill="#EAEAEA"/>
<rect x="333.116" y="45" width="4" height="4" rx="2" fill="#EAEAEA"/>
<rect x="342.115" y="45" width="4" height="4" rx="2" fill="#EAEAEA"/>
<rect x="351.113" y="45" width="4" height="4" rx="2" fill="#EAEAEA"/>
<rect x="0.174072" y="54" width="4" height="4" rx="2" fill="#EAEAEA"/>
<rect x="9.17249" y="54" width="4" height="4" rx="2" fill="#EAEAEA"/>
<rect x="18.1709" y="54" width="4" height="4" rx="2" fill="#EAEAEA"/>
<rect x="27.1693" y="54" width="4" height="4" rx="2" fill="#EAEAEA"/>
<rect x="36.1678" y="54" width="4" height="4" rx="2" fill="#EAEAEA"/>
<rect x="45.1663" y="54" width="4" height="4" rx="2" fill="#EAEAEA"/>
<rect x="54.1647" y="54" width="4" height="4" rx="2" fill="#EAEAEA"/>
<rect x="63.1631" y="54" width="4" height="4" rx="2" fill="#EAEAEA"/>
<rect x="72.1615" y="54" width="4" height="4" rx="2" fill="#EAEAEA"/>
<rect x="81.16" y="54" width="4" height="4" rx="2" fill="#EAEAEA"/>
<rect x="90.1584" y="54" width="4" height="4" rx="2" fill="#EAEAEA"/>
<rect x="99.1569" y="54" width="4" height="4" rx="2" fill="#EAEAEA"/>
<rect x="108.155" y="54" width="4" height="4" rx="2" fill="#EAEAEA"/>
<rect x="117.154" y="54" width="4" height="4" rx="2" fill="#EAEAEA"/>
<rect x="126.152" y="54" width="4" height="4" rx="2" fill="#EAEAEA"/>
<rect x="135.151" y="54" width="4" height="4" rx="2" fill="#EAEAEA"/>
<rect x="144.149" y="54" width="4" height="4" rx="2" fill="#EAEAEA"/>
<rect x="153.147" y="54" width="4" height="4" rx="2" fill="#EAEAEA"/>
<rect x="162.146" y="54" width="4" height="4" rx="2" fill="#EAEAEA"/>
<rect x="171.144" y="54" width="4" height="4" rx="2" fill="#EAEAEA"/>
<rect x="180.143" y="54" width="4" height="4" rx="2" fill="#EAEAEA"/>
<rect x="189.141" y="54" width="4" height="4" rx="2" fill="#EAEAEA"/>
<rect x="198.14" y="54" width="4" height="4" rx="2" fill="#EAEAEA"/>
<rect x="207.138" y="54" width="4" height="4" rx="2" fill="#EAEAEA"/>
<rect x="216.137" y="54" width="4" height="4" rx="2" fill="#EAEAEA"/>
<rect x="225.135" y="54" width="4" height="4" rx="2" fill="#EAEAEA"/>
<rect x="234.133" y="54" width="4" height="4" rx="2" fill="#EAEAEA"/>
<rect x="243.132" y="54" width="4" height="4" rx="2" fill="#EAEAEA"/>
<rect x="252.13" y="54" width="4" height="4" rx="2" fill="#EAEAEA"/>
<rect x="261.129" y="54" width="4" height="4" rx="2" fill="#EAEAEA"/>
<rect x="270.127" y="54" width="4" height="4" rx="2" fill="#EAEAEA"/>
<rect x="279.126" y="54" width="4" height="4" rx="2" fill="#EAEAEA"/>
<rect x="288.124" y="54" width="4" height="4" rx="2" fill="#EAEAEA"/>
<rect x="297.122" y="54" width="4" height="4" rx="2" fill="#EAEAEA"/>
<rect x="306.121" y="54" width="4" height="4" rx="2" fill="#EAEAEA"/>
<rect x="315.119" y="54" width="4" height="4" rx="2" fill="#EAEAEA"/>
<rect x="324.118" y="54" width="4" height="4" rx="2" fill="#EAEAEA"/>
<rect x="333.116" y="54" width="4" height="4" rx="2" fill="#EAEAEA"/>
<rect x="342.115" y="54" width="4" height="4" rx="2" fill="#EAEAEA"/>
<rect x="351.113" y="54" width="4" height="4" rx="2" fill="#EAEAEA"/>
<rect x="0.174072" y="63" width="4" height="4" rx="2" fill="#EAEAEA"/>
<rect x="9.17249" y="63" width="4" height="4" rx="2" fill="#EAEAEA"/>
<rect x="18.1709" y="63" width="4" height="4" rx="2" fill="#EAEAEA"/>
<rect x="27.1693" y="63" width="4" height="4" rx="2" fill="#EAEAEA"/>
<rect x="36.1678" y="63" width="4" height="4" rx="2" fill="#EAEAEA"/>
<rect x="45.1663" y="63" width="4" height="4" rx="2" fill="#EAEAEA"/>
<rect x="54.1647" y="63" width="4" height="4" rx="2" fill="#EAEAEA"/>
<rect x="63.1631" y="63" width="4" height="4" rx="2" fill="#EAEAEA"/>
<rect x="72.1615" y="63" width="4" height="4" rx="2" fill="#EAEAEA"/>
<rect x="81.16" y="63" width="4" height="4" rx="2" fill="#EAEAEA"/>
<rect x="90.1584" y="63" width="4" height="4" rx="2" fill="#EAEAEA"/>
<rect x="99.1569" y="63" width="4" height="4" rx="2" fill="#EAEAEA"/>
<rect x="108.155" y="63" width="4" height="4" rx="2" fill="#EAEAEA"/>
<rect x="117.154" y="63" width="4" height="4" rx="2" fill="#EAEAEA"/>
<rect x="126.152" y="63" width="4" height="4" rx="2" fill="#EAEAEA"/>
<rect x="135.151" y="63" width="4" height="4" rx="2" fill="#EAEAEA"/>
<rect x="144.149" y="63" width="4" height="4" rx="2" fill="#EAEAEA"/>
<rect x="153.147" y="63" width="4" height="4" rx="2" fill="#EAEAEA"/>
<rect x="162.146" y="63" width="4" height="4" rx="2" fill="#EAEAEA"/>
<rect x="171.144" y="63" width="4" height="4" rx="2" fill="#EAEAEA"/>
<rect x="180.143" y="63" width="4" height="4" rx="2" fill="#EAEAEA"/>
<rect x="189.141" y="63" width="4" height="4" rx="2" fill="#EAEAEA"/>
<rect x="198.14" y="63" width="4" height="4" rx="2" fill="#EAEAEA"/>
<rect x="207.138" y="63" width="4" height="4" rx="2" fill="#EAEAEA"/>
<rect x="216.137" y="63" width="4" height="4" rx="2" fill="#EAEAEA"/>
<rect x="225.135" y="63" width="4" height="4" rx="2" fill="#EAEAEA"/>
<rect x="234.133" y="63" width="4" height="4" rx="2" fill="#EAEAEA"/>
<rect x="243.132" y="63" width="4" height="4" rx="2" fill="#EAEAEA"/>
<rect x="252.13" y="63" width="4" height="4" rx="2" fill="#EAEAEA"/>
<rect x="261.129" y="63" width="4" height="4" rx="2" fill="#EAEAEA"/>
<rect x="270.127" y="63" width="4" height="4" rx="2" fill="#EAEAEA"/>
<rect x="279.126" y="63" width="4" height="4" rx="2" fill="#EAEAEA"/>
<rect x="288.124" y="63" width="4" height="4" rx="2" fill="#EAEAEA"/>
<rect x="297.122" y="63" width="4" height="4" rx="2" fill="#EAEAEA"/>
<rect x="306.121" y="63" width="4" height="4" rx="2" fill="#EAEAEA"/>
<rect x="315.119" y="63" width="4" height="4" rx="2" fill="#EAEAEA"/>
<rect x="324.118" y="63" width="4" height="4" rx="2" fill="#EAEAEA"/>
<rect x="333.116" y="63" width="4" height="4" rx="2" fill="#EAEAEA"/>
<rect x="342.115" y="63" width="4" height="4" rx="2" fill="#EAEAEA"/>
<rect x="351.113" y="63" width="4" height="4" rx="2" fill="#EAEAEA"/>
<rect x="0.174072" y="72" width="4" height="4" rx="2" fill="#EAEAEA"/>
<rect x="9.17249" y="72" width="4" height="4" rx="2" fill="#EAEAEA"/>
<rect x="18.1709" y="72" width="4" height="4" rx="2" fill="#EAEAEA"/>
<rect x="27.1693" y="72" width="4" height="4" rx="2" fill="#EAEAEA"/>
<rect x="36.1678" y="72" width="4" height="4" rx="2" fill="#EAEAEA"/>
<rect x="45.1663" y="72" width="4" height="4" rx="2" fill="#EAEAEA"/>
<rect x="54.1647" y="72" width="4" height="4" rx="2" fill="#EAEAEA"/>
<rect x="63.1631" y="72" width="4" height="4" rx="2" fill="#EAEAEA"/>
<rect x="72.1615" y="72" width="4" height="4" rx="2" fill="#EAEAEA"/>
<rect x="81.16" y="72" width="4" height="4" rx="2" fill="#EAEAEA"/>
<rect x="90.1584" y="72" width="4" height="4" rx="2" fill="#EAEAEA"/>
<rect x="99.1569" y="72" width="4" height="4" rx="2" fill="#EAEAEA"/>
<rect x="108.155" y="72" width="4" height="4" rx="2" fill="#EAEAEA"/>
<rect x="117.154" y="72" width="4" height="4" rx="2" fill="#EAEAEA"/>
<rect x="126.152" y="72" width="4" height="4" rx="2" fill="#EAEAEA"/>
<rect x="135.151" y="72" width="4" height="4" rx="2" fill="#EAEAEA"/>
<rect x="144.149" y="72" width="4" height="4" rx="2" fill="#EAEAEA"/>
<rect x="153.147" y="72" width="4" height="4" rx="2" fill="#EAEAEA"/>
<rect x="162.146" y="72" width="4" height="4" rx="2" fill="#EAEAEA"/>
<rect x="171.144" y="72" width="4" height="4" rx="2" fill="#EAEAEA"/>
<rect x="180.143" y="72" width="4" height="4" rx="2" fill="#EAEAEA"/>
<rect x="189.141" y="72" width="4" height="4" rx="2" fill="#EAEAEA"/>
<rect x="198.14" y="72" width="4" height="4" rx="2" fill="#EAEAEA"/>
<rect x="207.138" y="72" width="4" height="4" rx="2" fill="#EAEAEA"/>
<rect x="216.137" y="72" width="4" height="4" rx="2" fill="#EAEAEA"/>
<rect x="225.135" y="72" width="4" height="4" rx="2" fill="#EAEAEA"/>
<rect x="234.133" y="72" width="4" height="4" rx="2" fill="#EAEAEA"/>
<rect x="243.132" y="72" width="4" height="4" rx="2" fill="#EAEAEA"/>
<rect x="252.13" y="72" width="4" height="4" rx="2" fill="#EAEAEA"/>
<rect x="261.129" y="72" width="4" height="4" rx="2" fill="#EAEAEA"/>
<rect x="270.127" y="72" width="4" height="4" rx="2" fill="#EAEAEA"/>
<rect x="279.126" y="72" width="4" height="4" rx="2" fill="#EAEAEA"/>
<rect x="288.124" y="72" width="4" height="4" rx="2" fill="#EAEAEA"/>
<rect x="297.122" y="72" width="4" height="4" rx="2" fill="#EAEAEA"/>
<rect x="306.121" y="72" width="4" height="4" rx="2" fill="#EAEAEA"/>
<rect x="315.119" y="72" width="4" height="4" rx="2" fill="#EAEAEA"/>
<rect x="324.118" y="72" width="4" height="4" rx="2" fill="#EAEAEA"/>
<rect x="333.116" y="72" width="4" height="4" rx="2" fill="#EAEAEA"/>
<rect x="342.115" y="72" width="4" height="4" rx="2" fill="#EAEAEA"/>
<rect x="351.113" y="72" width="4" height="4" rx="2" fill="#EAEAEA"/>
<rect x="0.174072" y="81" width="4" height="4" rx="2" fill="#EAEAEA"/>
<rect x="9.17249" y="81" width="4" height="4" rx="2" fill="#EAEAEA"/>
<rect x="18.1709" y="81" width="4" height="4" rx="2" fill="#EAEAEA"/>
<rect x="27.1693" y="81" width="4" height="4" rx="2" fill="#EAEAEA"/>
<rect x="36.1678" y="81" width="4" height="4" rx="2" fill="#EAEAEA"/>
<rect x="45.1663" y="81" width="4" height="4" rx="2" fill="#EAEAEA"/>
<rect x="54.1647" y="81" width="4" height="4" rx="2" fill="#EAEAEA"/>
<rect x="63.1631" y="81" width="4" height="4" rx="2" fill="#EAEAEA"/>
<rect x="72.1615" y="81" width="4" height="4" rx="2" fill="#EAEAEA"/>
<rect x="81.16" y="81" width="4" height="4" rx="2" fill="#EAEAEA"/>
<rect x="90.1584" y="81" width="4" height="4" rx="2" fill="#EAEAEA"/>
<rect x="99.1569" y="81" width="4" height="4" rx="2" fill="#EAEAEA"/>
<rect x="108.155" y="81" width="4" height="4" rx="2" fill="#EAEAEA"/>
<rect x="117.154" y="81" width="4" height="4" rx="2" fill="#EAEAEA"/>
<rect x="126.152" y="81" width="4" height="4" rx="2" fill="#EAEAEA"/>
<rect x="135.151" y="81" width="4" height="4" rx="2" fill="#EAEAEA"/>
<rect x="144.149" y="81" width="4" height="4" rx="2" fill="#EAEAEA"/>
<rect x="153.147" y="81" width="4" height="4" rx="2" fill="#EAEAEA"/>
<rect x="162.146" y="81" width="4" height="4" rx="2" fill="#EAEAEA"/>
<rect x="171.144" y="81" width="4" height="4" rx="2" fill="#EAEAEA"/>
<rect x="180.143" y="81" width="4" height="4" rx="2" fill="#EAEAEA"/>
<rect x="189.141" y="81" width="4" height="4" rx="2" fill="#EAEAEA"/>
<rect x="198.14" y="81" width="4" height="4" rx="2" fill="#EAEAEA"/>
<rect x="207.138" y="81" width="4" height="4" rx="2" fill="#EAEAEA"/>
<rect x="216.137" y="81" width="4" height="4" rx="2" fill="#EAEAEA"/>
<rect x="225.135" y="81" width="4" height="4" rx="2" fill="#EAEAEA"/>
<rect x="234.133" y="81" width="4" height="4" rx="2" fill="#EAEAEA"/>
<rect x="243.132" y="81" width="4" height="4" rx="2" fill="#EAEAEA"/>
<rect x="252.13" y="81" width="4" height="4" rx="2" fill="#EAEAEA"/>
<rect x="261.129" y="81" width="4" height="4" rx="2" fill="#EAEAEA"/>
<rect x="270.127" y="81" width="4" height="4" rx="2" fill="#EAEAEA"/>
<rect x="279.126" y="81" width="4" height="4" rx="2" fill="#EAEAEA"/>
<rect x="288.124" y="81" width="4" height="4" rx="2" fill="#EAEAEA"/>
<rect x="297.122" y="81" width="4" height="4" rx="2" fill="#EAEAEA"/>
<rect x="306.121" y="81" width="4" height="4" rx="2" fill="#EAEAEA"/>
<rect x="315.119" y="81" width="4" height="4" rx="2" fill="#EAEAEA"/>
<rect x="324.118" y="81" width="4" height="4" rx="2" fill="#EAEAEA"/>
<rect x="333.116" y="81" width="4" height="4" rx="2" fill="#EAEAEA"/>
<rect x="342.115" y="81" width="4" height="4" rx="2" fill="#EAEAEA"/>
<rect x="351.113" y="81" width="4" height="4" rx="2" fill="#EAEAEA"/>
</svg>
