<svg width="47" height="52" viewBox="0 0 47 52" fill="none" xmlns="http://www.w3.org/2000/svg">
<path d="M21.0089 40.6512V13.7438C21.0089 11.5125 19.2001 9.70361 16.9688 9.70361V9.70361C14.7374 9.70361 12.9286 11.5125 12.9286 13.7438V32.2695" stroke="#53A8CB" stroke-width="3.23214" stroke-linecap="round"/>
<path d="M45.25 25.8222V38.9185V38.9185C45.25 45.0387 40.2887 50 34.1686 50H25.0492C13.8925 50 4.84827 40.9557 4.84827 29.7991V9.70371" stroke="url(#paint0_linear)" stroke-width="3.23214" stroke-linecap="round"/>
<rect x="3.23218" y="4.06226" width="3.23214" height="3.2237" rx="1.61185" fill="#53A8CB"/>
<path d="M29.0893 42.3438V17.7736C29.0893 15.5422 27.2804 13.7334 25.0491 13.7334V13.7334C22.8178 13.7334 21.0089 15.5422 21.0089 17.7736V33.8815" stroke="#53A8CB" stroke-width="3.23214" stroke-linecap="round"/>
<path d="M37.1697 39.7244V21.8031C37.1697 19.5718 35.3609 17.7629 33.1295 17.7629V17.7629C30.8982 17.7629 29.0894 19.5718 29.0894 21.8031V33.8815" stroke="#53A8CB" stroke-width="3.23214" stroke-linecap="round"/>
<path fill-rule="evenodd" clip-rule="evenodd" d="M4.82801 1.84595C2.94746 1.84595 1.41406 3.37043 1.41406 5.25098C1.41406 6.70103 2.32575 7.93937 3.6053 8.43036C2.55311 7.95669 1.81807 6.90073 1.81807 5.6741C1.81807 4.00497 3.17907 2.65188 4.8482 2.65188C6.51733 2.65188 7.87834 4.00497 7.87834 5.6741C7.87834 6.7984 7.26083 7.7793 6.34759 8.29988C7.46898 7.74186 8.24196 6.58617 8.24196 5.25098C8.24196 3.37043 6.70856 1.84595 4.82801 1.84595Z" fill="#8881B9"/>
<path fill-rule="evenodd" clip-rule="evenodd" d="M4.84821 0C2.17761 0 0 2.16495 0 4.83555C0 6.70566 1.06781 8.32782 2.62498 9.13226C1.29882 8.36528 0.404014 6.93401 0.404014 5.29497C0.404014 2.84692 2.40016 0.862378 4.84821 0.862378C7.29626 0.862378 9.29241 2.84692 9.29241 5.29497C9.29241 6.93404 8.39757 8.36532 7.07138 9.1323C8.62858 8.32787 9.69643 6.70569 9.69643 4.83555C9.69643 2.16495 7.51882 0 4.84821 0Z" fill="#EC99BA"/>
<defs>
<linearGradient id="paint0_linear" x1="25.0492" y1="50" x2="25.0492" y2="9.70371" gradientUnits="userSpaceOnUse">
<stop offset="0.0497119" stop-color="#E898BA"/>
<stop offset="0.771529" stop-color="#8881B9"/>
</linearGradient>
</defs>
</svg>
