<svg width="40" height="20" viewBox="0 0 40 20" fill="none" xmlns="http://www.w3.org/2000/svg">
<path fill-rule="evenodd" clip-rule="evenodd" d="M33.7334 10.467L32.2741 9.85229C31.6669 10.6386 30.8344 11.2405 29.871 11.5578L30.4166 12.9995C31.778 12.5352 32.9399 11.6364 33.7334 10.467Z" fill="#303038"/>
<mask id="mask0" mask-type="alpha" maskUnits="userSpaceOnUse" x="0" y="0" width="35" height="14">
<path fill-rule="evenodd" clip-rule="evenodd" d="M0 0.240967H34.8612V13.3499H0V0.240967Z" fill="white"/>
</mask>
<g mask="url(#mask0)">
<path fill-rule="evenodd" clip-rule="evenodd" d="M28.5903 11.7966C28.4959 11.8019 28.4024 11.8111 28.3067 11.8111H6.55443C3.78889 11.8111 1.53877 9.56097 1.53877 6.79542C1.53877 4.02988 3.78889 1.78 6.55443 1.78H28.3067C31.0723 1.78 33.3224 4.02988 33.3224 6.79542C33.3224 7.48362 33.1826 8.13952 32.9306 8.73711L34.3489 9.3347C34.6785 8.5535 34.8612 7.69518 34.8612 6.79542C34.8612 3.18121 31.9209 0.240967 28.3067 0.240967H6.55443C2.94046 0.240967 -2.38419e-05 3.18121 -2.38419e-05 6.79542C-2.38419e-05 10.4094 2.94046 13.3499 6.55443 13.3499H28.3067C28.5949 13.3499 28.878 13.3292 29.1566 13.293L28.5903 11.7966Z" fill="#303038"/>
</g>
<mask id="mask1" mask-type="alpha" maskUnits="userSpaceOnUse" x="28" y="8" width="12" height="12">
<path fill-rule="evenodd" clip-rule="evenodd" d="M28.6477 8.3241H39.6154V19.4556H28.6477V8.3241Z" fill="white"/>
</mask>
<g mask="url(#mask1)">
<path fill-rule="evenodd" clip-rule="evenodd" d="M39.6154 12.9453L28.6477 8.3241L32.8592 19.4557L34.7074 16.1492L37.8571 19.4181L39.3927 17.9383L36.2428 14.6696L39.6154 12.9453Z" fill="#303038"/>
</g>
<mask id="mask2" mask-type="alpha" maskUnits="userSpaceOnUse" x="0" y="0" width="40" height="20">
<path fill-rule="evenodd" clip-rule="evenodd" d="M0 19.4557H39.6154V0.240967H0V19.4557Z" fill="white"/>
</mask>
<g mask="url(#mask2)">
<path d="M12.5814 6.40952L13.0456 3.69294H14.4209L13.3351 8.30005H12.1216L11.3594 5.56644L10.593 8.30005H9.37945L8.29368 3.69294H9.66899L10.1246 6.47339L10.857 3.69294H11.8576L12.5814 6.40952ZM18.9293 6.40952L19.3934 3.69294H20.7688L19.683 8.30005H18.4695L17.7073 5.56644L16.9409 8.30005H15.7273L14.6416 3.69294H16.0169L16.4725 6.47339L17.2048 3.69294H18.2055L18.9293 6.40952ZM25.2772 6.40952L25.7413 3.69294H27.1166L26.0309 8.30005H24.8173L24.0552 5.56644L23.2887 8.30005H22.0752L20.9894 3.69294H22.3648L22.8204 6.47339L23.5527 3.69294H24.5533L25.2772 6.40952Z" fill="#303038"/>
</g>
</svg>
