<svg width="290" height="271" viewBox="0 0 290 271" fill="none" xmlns="http://www.w3.org/2000/svg">
<path fill-rule="evenodd" clip-rule="evenodd" d="M119.932 221.807C119.932 248.944 97.6616 270.942 70.19 270.942C42.7184 270.942 20.448 248.944 20.448 221.807C20.448 194.67 42.7184 172.672 70.19 172.672C97.6616 172.672 119.932 194.67 119.932 221.807Z" fill="#072E4B"/>
<path fill-rule="evenodd" clip-rule="evenodd" d="M84.3875 214.439C84.3875 222.184 70.19 243.199 70.19 243.199C70.19 243.199 55.9924 222.184 55.9924 214.439C55.9924 206.694 62.3492 200.415 70.19 200.415C78.0319 200.415 84.3875 206.694 84.3875 214.439Z" stroke="white" stroke-width="1.22222" stroke-linecap="round" stroke-linejoin="round"/>
<path fill-rule="evenodd" clip-rule="evenodd" d="M78.2958 214.439C78.2958 218.861 74.6674 222.447 70.1897 222.447C65.7131 222.447 62.0847 218.861 62.0847 214.439C62.0847 210.017 65.7131 206.433 70.1897 206.433C74.6674 206.433 78.2958 210.017 78.2958 214.439Z" stroke="white" stroke-width="1.22222" stroke-linecap="round" stroke-linejoin="round"/>
<path fill-rule="evenodd" clip-rule="evenodd" d="M99.7721 61.8322C99.7721 89.2159 77.5729 111.414 50.1891 111.414C22.8069 111.414 0.607666 89.2159 0.607666 61.8322C0.607666 34.4485 22.8069 12.2499 50.1891 12.2499C77.5729 12.2499 99.7721 34.4485 99.7721 61.8322Z" fill="#EBEFF1"/>
<path fill-rule="evenodd" clip-rule="evenodd" d="M66.9734 75.423H33.406V58.6748L50.1897 48.2415L66.9734 58.6748V75.423Z" stroke="#4A4A4A" stroke-linecap="round" stroke-linejoin="round"/>
<path d="M33.4055 75.423L50.1892 63.0674L66.9729 75.423" stroke="#4A4A4A" stroke-linecap="round" stroke-linejoin="round"/>
<path d="M33.4055 58.6746L46.0774 66.0946" stroke="#4A4A4A" stroke-linecap="round" stroke-linejoin="round"/>
<path d="M54.3018 66.0943L66.9729 58.6743" stroke="#4A4A4A" stroke-linecap="round" stroke-linejoin="round"/>
<path fill-rule="evenodd" clip-rule="evenodd" d="M240.562 121.781C240.562 171.919 199.918 212.562 149.781 212.562C99.644 212.562 59 171.919 59 121.781C59 71.644 99.644 31 149.781 31C199.918 31 240.562 71.644 240.562 121.781Z" fill="#53A8CB"/>
<path fill-rule="evenodd" clip-rule="evenodd" d="M167.978 162.431H132.032C128.763 162.431 126.112 159.781 126.112 156.511V87.1637C126.112 83.8937 128.763 81.2437 132.032 81.2437H167.978C171.248 81.2437 173.898 83.8937 173.898 87.1637V156.511C173.898 159.781 171.248 162.431 167.978 162.431Z" stroke="white" stroke-width="2" stroke-linecap="round" stroke-linejoin="round"/>
<path fill-rule="evenodd" clip-rule="evenodd" d="M126.111 150.346H173.898V88.991H126.111V150.346Z" stroke="white" stroke-width="2" stroke-linecap="round" stroke-linejoin="round"/>
<path fill-rule="evenodd" clip-rule="evenodd" d="M152.388 156.367C152.388 157.682 151.321 158.749 150.005 158.749C148.69 158.749 147.623 157.682 147.623 156.367C147.623 155.051 148.69 153.984 150.005 153.984C151.321 153.984 152.388 155.051 152.388 156.367Z" stroke="white" stroke-width="2" stroke-linecap="round" stroke-linejoin="round"/>
<path fill-rule="evenodd" clip-rule="evenodd" d="M163.274 122.978H136.735V117.758C136.735 115.784 138.336 114.183 140.311 114.183H159.699C161.673 114.183 163.274 115.784 163.274 117.758V122.978Z" stroke="white" stroke-width="2" stroke-linecap="round" stroke-linejoin="round"/>
<path fill-rule="evenodd" clip-rule="evenodd" d="M156.885 103.372C156.885 107.172 153.805 110.252 150.005 110.252C146.205 110.252 143.125 107.172 143.125 103.372C143.125 99.5716 146.205 96.4916 150.005 96.4916C153.805 96.4916 156.885 99.5716 156.885 103.372Z" stroke="white" stroke-width="2" stroke-linecap="round" stroke-linejoin="round"/>
<path d="M150.005 130.842V141.384" stroke="white" stroke-width="2" stroke-linecap="round" stroke-linejoin="round"/>
<path d="M155.276 136.113H144.734" stroke="white" stroke-width="2" stroke-linecap="round" stroke-linejoin="round"/>
<path fill-rule="evenodd" clip-rule="evenodd" d="M289.106 49.5529C289.106 76.9202 266.92 99.1058 239.553 99.1058C212.186 99.1058 190 76.9202 190 49.5529C190 22.1856 212.186 0 239.553 0C266.92 0 289.106 22.1856 289.106 49.5529Z" fill="#072E4B"/>
<path fill-rule="evenodd" clip-rule="evenodd" d="M257.558 30.78H220.716C218.675 30.78 217.021 32.4338 217.021 34.4742V51.2069C217.021 53.2473 218.675 54.9002 220.716 54.9002H233.33L239.136 68.9165L244.944 54.9002H257.558C259.598 54.9002 261.252 53.2473 261.252 51.2069V34.4742C261.252 32.4338 259.598 30.78 257.558 30.78Z" stroke="white" stroke-width="0.961538" stroke-linecap="round" stroke-linejoin="round"/>
<path fill-rule="evenodd" clip-rule="evenodd" d="M230.787 42.6181C230.787 44.7373 229.069 46.4546 226.95 46.4546C224.832 46.4546 223.115 44.7373 223.115 42.6181C223.115 40.4998 224.832 38.7816 226.95 38.7816C229.069 38.7816 230.787 40.4998 230.787 42.6181Z" stroke="white" stroke-width="0.961538" stroke-linecap="round" stroke-linejoin="round"/>
<path fill-rule="evenodd" clip-rule="evenodd" d="M242.973 42.6181C242.973 44.7373 241.256 46.4546 239.136 46.4546C237.018 46.4546 235.301 44.7373 235.301 42.6181C235.301 40.4998 237.018 38.7816 239.136 38.7816C241.256 38.7816 242.973 40.4998 242.973 42.6181Z" stroke="white" stroke-width="0.961538" stroke-linecap="round" stroke-linejoin="round"/>
<path fill-rule="evenodd" clip-rule="evenodd" d="M255.159 42.6181C255.159 44.7373 253.442 46.4546 251.323 46.4546C249.204 46.4546 247.487 44.7373 247.487 42.6181C247.487 40.4998 249.204 38.7816 251.323 38.7816C253.442 38.7816 255.159 40.4998 255.159 42.6181Z" stroke="white" stroke-width="0.961538" stroke-linecap="round" stroke-linejoin="round"/>
<path fill-rule="evenodd" clip-rule="evenodd" d="M279.837 201.918C279.837 229.488 257.488 251.837 229.918 251.837C202.349 251.837 180 229.488 180 201.918C180 174.349 202.349 152 229.918 152C257.488 152 279.837 174.349 279.837 201.918Z" fill="#EBEFF1"/>
<path fill-rule="evenodd" clip-rule="evenodd" d="M245.295 209.906H214.039V193.15C214.039 192.083 214.905 191.217 215.972 191.217H243.362C244.43 191.217 245.295 192.083 245.295 193.15V209.906Z" stroke="#4A4A4A" stroke-linecap="round" stroke-linejoin="round"/>
<path fill-rule="evenodd" clip-rule="evenodd" d="M215.489 207.65H243.845V193.472H215.489V207.65Z" stroke="#4A4A4A" stroke-linecap="round" stroke-linejoin="round"/>
<path fill-rule="evenodd" clip-rule="evenodd" d="M245.727 212.451H213.608C212.423 212.451 211.462 211.49 211.462 210.304V209.906H247.873V210.304C247.873 211.49 246.912 212.451 245.727 212.451Z" stroke="#4A4A4A" stroke-linecap="round" stroke-linejoin="round"/>
<path fill-rule="evenodd" clip-rule="evenodd" d="M235.306 203.187L234.16 204.333L232.118 202.292L233.264 201.146L235.306 203.187Z" fill="#4A4A4A"/>
<path fill-rule="evenodd" clip-rule="evenodd" d="M233.105 202.132L232.119 204.838L230.176 199.203L235.811 201.146L233.105 202.132Z" fill="#4A4A4A"/>
</svg>
