<svg width="562" height="103" viewBox="0 0 562 103" fill="none" xmlns="http://www.w3.org/2000/svg">
<path fill-rule="evenodd" clip-rule="evenodd" d="M57.711 8.64258C51.5927 8.64258 46.4243 14.9005 46.4243 22.3084C46.4243 22.4556 46.4228 23.4096 46.4197 24.9765C46.3109 81.2037 46.387 81.5483 46.4835 81.9844C47.1023 84.6568 48.2258 86.9903 49.8265 88.9426C52.2534 91.8798 55.6065 93.5612 59.0297 93.5612C63.6305 93.5612 67.934 90.5727 70.2607 85.7617C71.3939 83.398 71.9892 80.827 72.0351 78.1069C77.4683 78.0098 82.0308 72.428 82.0308 65.8317C82.0308 63.5682 81.5137 61.3919 80.5455 59.4891C81.3569 58.9243 82.1048 58.2333 82.7644 57.4347C84.758 55.0202 85.9025 51.6772 85.9025 48.2624C85.9025 44.8483 84.758 41.5059 82.7644 39.0908C82.0951 38.2805 81.3308 37.5789 80.5011 37.008C81.1923 35.2876 81.551 33.4181 81.551 31.4924C81.551 24.5033 76.6738 18.5986 70.9014 18.5986C70.1309 18.5986 69.3681 18.7025 68.6212 18.9085C67.3418 13.0459 62.857 8.64258 57.711 8.64258ZM57.711 10.8044C62.7446 10.8044 66.9561 15.7503 67.1901 21.7855C68.3243 21.1353 69.5812 20.7604 70.9014 20.7604C75.7337 20.7604 79.7653 25.6413 79.7653 31.4922C79.7653 33.9153 79.0659 36.1658 77.9122 37.979C79.2549 38.5011 80.4929 39.3975 81.5014 40.6192C83.168 42.6372 84.1168 45.4073 84.1168 48.2622C84.1168 51.1178 83.168 53.8879 81.5014 55.9059C80.4402 57.1913 79.1256 58.1187 77.7032 58.6265C79.2631 60.4725 80.2446 63.0329 80.2446 65.8316C80.2446 71.3447 76.4443 75.9459 71.891 75.9459C71.2468 75.9459 70.6209 75.8445 70.0149 75.6706C70.0941 76.3839 70.1738 77.0972 70.2525 77.8104C70.2459 80.2632 69.736 82.5496 68.7203 84.6684C66.7215 88.8014 62.9877 91.3989 59.0297 91.3989C56.0653 91.3989 53.1893 89.9557 51.0935 87.4188C49.7028 85.7238 48.7408 83.725 48.2079 81.4225C48.0812 80.8522 48.2099 23.5343 48.2099 22.3082C48.2099 16.0373 52.5318 10.8044 57.711 10.8044Z" fill="#EC99BA"/>
<path d="M46.4197 24.9765L45.4197 24.9746L45.4197 24.9746L46.4197 24.9765ZM46.4835 81.9844L45.5072 82.2006L45.5093 82.21L46.4835 81.9844ZM49.8265 88.9426L49.0532 89.5766L49.0556 89.5796L49.8265 88.9426ZM70.2607 85.7617L71.161 86.1971L71.1624 86.194L70.2607 85.7617ZM72.0351 78.1069L72.0173 77.1071L71.0516 77.1244L71.0353 78.09L72.0351 78.1069ZM80.5455 59.4891L79.9742 58.6684L79.2592 59.1661L79.6543 59.9426L80.5455 59.4891ZM82.7644 57.4347L83.5355 58.0715L83.5355 58.0714L82.7644 57.4347ZM82.7644 39.0908L83.5356 38.4542L83.5355 38.454L82.7644 39.0908ZM80.5011 37.008L79.5732 36.6351L79.2747 37.3779L79.9342 37.8318L80.5011 37.008ZM68.6212 18.9085L67.6442 19.1217L67.8693 20.1532L68.887 19.8725L68.6212 18.9085ZM67.1901 21.7855L66.1908 21.8242L66.2548 23.4742L67.6874 22.6531L67.1901 21.7855ZM77.9122 37.979L77.0685 37.4422L76.4148 38.4697L77.5498 38.911L77.9122 37.979ZM81.5014 40.6192L80.7302 41.2559L80.7304 41.256L81.5014 40.6192ZM81.5014 55.9059L80.7304 55.2691L80.7302 55.2692L81.5014 55.9059ZM77.7032 58.6265L77.367 57.6848L76.0082 58.1699L76.9394 59.272L77.7032 58.6265ZM70.0149 75.6706L70.2907 74.7094L68.8564 74.2979L69.021 75.781L70.0149 75.6706ZM70.2525 77.8104L71.2525 77.8131L71.2527 77.7568L71.2465 77.7008L70.2525 77.8104ZM68.7203 84.6684L69.6205 85.1038L69.622 85.1007L68.7203 84.6684ZM51.0935 87.4188L50.3205 88.0531L50.3226 88.0557L51.0935 87.4188ZM48.2079 81.4225L47.2316 81.6394L47.2336 81.648L48.2079 81.4225ZM57.711 7.64258C50.87 7.64258 45.4243 14.5357 45.4243 22.3084H47.4243C47.4243 15.2653 52.3155 9.64258 57.711 9.64258V7.64258ZM45.4243 22.3084C45.4243 22.4544 45.4228 23.4069 45.4197 24.9746L47.4197 24.9785C47.4227 23.4122 47.4243 22.4569 47.4243 22.3084H45.4243ZM45.4197 24.9746C45.3653 53.0878 45.3571 67.233 45.3746 74.4046C45.3833 77.9883 45.3985 79.8375 45.4177 80.8195C45.4364 81.7744 45.4579 81.9781 45.5072 82.2006L47.4599 81.7682C47.4584 81.7613 47.4539 81.7574 47.4462 81.647C47.437 81.5124 47.4268 81.2645 47.4173 80.7803C47.3985 79.8179 47.3833 77.985 47.3746 74.3997C47.3571 67.2332 47.3653 53.0924 47.4197 24.9784L45.4197 24.9746ZM45.5093 82.21C46.1599 85.0199 47.3473 87.496 49.0532 89.5766L50.5998 88.3086C49.1043 86.4845 48.0447 84.2938 47.4578 81.7589L45.5093 82.21ZM49.0556 89.5796C51.6484 92.7176 55.2725 94.5612 59.0297 94.5612V92.5612C55.9405 92.5612 52.8583 91.042 50.5974 88.3056L49.0556 89.5796ZM59.0297 94.5612C64.085 94.5612 68.7005 91.2845 71.161 86.1971L69.3605 85.3263C67.1674 89.8608 63.1761 92.5612 59.0297 92.5612V94.5612ZM71.1624 86.194C72.3604 83.6953 72.9867 80.9819 73.035 78.1238L71.0353 78.09C70.9916 80.6721 70.4275 83.1006 69.359 85.3294L71.1624 86.194ZM72.053 79.1068C78.1958 78.997 83.0308 72.7926 83.0308 65.8317H81.0308C81.0308 72.0635 76.7407 77.0227 72.0173 77.1071L72.053 79.1068ZM83.0308 65.8317C83.0308 63.4168 82.4792 61.0844 81.4368 59.0356L79.6543 59.9426C80.5482 61.6995 81.0308 63.7196 81.0308 65.8317H83.0308ZM81.1168 60.3098C82.0054 59.6913 82.82 58.9377 83.5355 58.0715L81.9934 56.7979C81.3897 57.5289 80.7083 58.1573 79.9742 58.6684L81.1168 60.3098ZM83.5355 58.0714C85.6907 55.4612 86.9025 51.8873 86.9025 48.2624H84.9025C84.9025 51.4671 83.8254 54.5792 81.9933 56.798L83.5355 58.0714ZM86.9025 48.2624C86.9025 44.6381 85.6907 41.0649 83.5356 38.4542L81.9933 39.7274C83.8254 41.947 84.9025 45.0585 84.9025 48.2624H86.9025ZM83.5355 38.454C82.8088 37.5742 81.9762 36.8092 81.068 36.1842L79.9342 37.8318C80.6854 38.3487 81.3815 38.9867 81.9934 39.7276L83.5355 38.454ZM81.429 37.3808C82.1692 35.5387 82.551 33.5424 82.551 31.4924H80.551C80.551 33.2939 80.2155 35.0365 79.5732 36.6351L81.429 37.3808ZM82.551 31.4924C82.551 24.1384 77.3965 17.5986 70.9014 17.5986V19.5986C75.9511 19.5986 80.551 24.8681 80.551 31.4924H82.551ZM70.9014 17.5986C70.0403 17.5986 69.1881 17.7148 68.3553 17.9445L68.887 19.8725C69.5482 19.6902 70.2216 19.5986 70.9014 19.5986V17.5986ZM69.5982 18.6953C68.2505 12.5197 63.4622 7.64258 57.711 7.64258V9.64258C62.2518 9.64258 66.4331 13.5721 67.6442 19.1217L69.5982 18.6953ZM57.711 11.8044C62.0409 11.8044 65.9705 16.1423 66.1908 21.8242L68.1893 21.7467C67.9416 15.3582 63.4482 9.80444 57.711 9.80444V11.8044ZM67.6874 22.6531C68.6879 22.0795 69.775 21.7604 70.9014 21.7604V19.7604C69.3873 19.7604 67.9607 20.1911 66.6928 20.9179L67.6874 22.6531ZM70.9014 21.7604C75.011 21.7604 78.7653 26.0062 78.7653 31.4922H80.7653C80.7653 25.2764 76.4563 19.7604 70.9014 19.7604V21.7604ZM78.7653 31.4922C78.7653 33.7239 78.1208 35.7884 77.0685 37.4422L78.7559 38.5158C80.011 36.5433 80.7653 34.1067 80.7653 31.4922H78.7653ZM77.5498 38.911C78.725 39.368 79.8247 40.1588 80.7302 41.2559L82.2726 39.9826C81.1611 38.6361 79.7849 37.6342 78.2746 37.047L77.5498 38.911ZM80.7304 41.256C82.2354 43.0783 83.1168 45.6175 83.1168 48.2622H85.1168C85.1168 45.1972 84.1007 42.196 82.2724 39.9824L80.7304 41.256ZM83.1168 48.2622C83.1168 50.9076 82.2354 53.4468 80.7304 55.2691L82.2724 56.5427C84.1007 54.3291 85.1168 51.3279 85.1168 48.2622H83.1168ZM80.7302 55.2692C79.7768 56.4242 78.6094 57.2412 77.367 57.6848L78.0395 59.5683C79.6419 58.9962 81.1037 57.9585 82.2726 56.5425L80.7302 55.2692ZM76.9394 59.272C78.3426 60.9325 79.2446 63.2627 79.2446 65.8316H81.2446C81.2446 62.8032 80.1836 60.0125 78.4671 57.9811L76.9394 59.272ZM79.2446 65.8316C79.2446 70.9799 75.7216 74.9459 71.891 74.9459V76.9459C77.1671 76.9459 81.2446 71.7095 81.2446 65.8316H79.2446ZM71.891 74.9459C71.3527 74.9459 70.8201 74.8613 70.2907 74.7094L69.7392 76.6319C70.4217 76.8277 71.1408 76.9459 71.891 76.9459V74.9459ZM69.021 75.781C69.1003 76.4952 69.1799 77.2072 69.2585 77.9201L71.2465 77.7008C71.1678 76.9871 71.0879 76.2726 71.0088 75.5603L69.021 75.781ZM69.2525 77.8077C69.2463 80.1189 68.7669 82.2577 67.8185 84.2361L69.622 85.1007C70.705 82.8415 71.2455 80.4075 71.2525 77.8131L69.2525 77.8077ZM67.82 84.233C65.9548 88.0899 62.5329 90.3989 59.0297 90.3989V92.3989C63.4426 92.3989 67.4883 89.5128 69.6205 85.1038L67.82 84.233ZM59.0297 90.3989C56.3991 90.3989 53.7942 89.1177 51.8645 86.7819L50.3226 88.0557C52.5845 90.7937 55.7315 92.3989 59.0297 92.3989V90.3989ZM51.8666 86.7845C50.581 85.2175 49.6831 83.3614 49.1821 81.197L47.2336 81.648C47.7985 84.0886 48.8247 86.23 50.3205 88.0531L51.8666 86.7845ZM49.1841 81.2057C49.2044 81.2973 49.2043 81.3716 49.2008 81.3034C49.1995 81.2788 49.198 81.2382 49.1963 81.1785C49.1931 81.0606 49.1899 80.889 49.1869 80.6648C49.181 80.2175 49.1759 79.5751 49.1716 78.7637C49.163 77.1416 49.1576 74.8528 49.1547 72.1167C49.149 66.6449 49.1532 59.3892 49.1614 52.1124C49.1777 37.5615 49.2099 22.9214 49.2099 22.3082H47.2099C47.2099 22.9211 47.1777 37.553 47.1614 52.1101C47.1532 59.3873 47.149 66.6447 47.1547 72.1188C47.1576 74.8556 47.163 77.1478 47.1716 78.7743C47.1759 79.5871 47.181 80.2359 47.1871 80.6914C47.1901 80.9186 47.1934 81.1015 47.1971 81.234C47.1989 81.2995 47.201 81.3582 47.2034 81.4059C47.2037 81.4101 47.2074 81.5299 47.2317 81.6394L49.1841 81.2057ZM49.2099 22.3082C49.2099 16.4021 53.2545 11.8044 57.711 11.8044V9.80444C51.809 9.80444 47.2099 15.6725 47.2099 22.3082H49.2099Z" fill="#EC99BA"/>
<path d="M68.8129 71.4304C70.8035 66.1072 68.8518 59.8369 64.4558 57.4268" stroke="#EC99BA" stroke-width="4" stroke-linecap="round" stroke-linejoin="bevel"/>
<path d="M61.6081 45.6448C56.8719 46.7719 53.7875 52.3357 54.7184 58.0691" stroke="#EC99BA" stroke-width="4" stroke-linecap="round" stroke-linejoin="bevel"/>
<path d="M64.7028 57.2027C67.0882 56.4542 69.1304 54.4808 70.2656 51.8337" stroke="#EC99BA" stroke-width="4" stroke-linecap="round" stroke-linejoin="bevel"/>
<path d="M62.6731 28.0042C59.1657 28.8201 56.0598 31.4467 54.2148 35.1492" stroke="#EC99BA" stroke-width="4" stroke-linecap="round" stroke-linejoin="bevel"/>
<path fill-rule="evenodd" clip-rule="evenodd" d="M68.1386 86.1547C68.1386 86.1547 68.205 86.0458 68.3292 85.8417C68.3915 85.7396 68.4687 85.6134 68.5586 85.4656C68.6577 85.3159 68.7441 85.1482 68.8268 84.9651C68.9157 84.7808 69.0138 84.5766 69.1211 84.3539C69.2131 84.1127 69.3127 83.851 69.4195 83.572C69.5212 83.2912 69.5953 82.9744 69.6939 82.6521C69.7838 82.3255 69.8349 81.9667 69.9146 81.6023C69.9616 81.2299 70.0152 80.8414 70.0438 80.4369C70.051 80.0304 70.0914 79.611 70.0561 79.1805C70.0444 78.3162 69.8885 77.4174 69.6693 76.521C69.442 75.6228 69.0741 74.7555 68.6383 73.9321C68.3972 73.5374 68.1657 73.131 67.877 72.7772C67.7411 72.5928 67.6073 72.4041 67.4479 72.2458L67.2195 71.9958L67.1061 71.8709L67.0488 71.8078L67.0207 71.7762L67.0064 71.7608L66.9993 71.7527C67.01 71.7632 66.9645 71.7193 67.0218 71.7738C66.2702 71.0704 65.6637 70.6293 64.9014 70.2353C64.1529 69.8845 63.3871 69.6259 62.6263 69.5369C61.8681 69.4583 61.1242 69.4521 60.4381 69.6086C60.0901 69.6507 59.7657 69.7812 59.4469 69.8678C59.1337 69.9804 58.8379 70.1177 58.5538 70.2439C58.2825 70.4072 58.0112 70.5353 57.7726 70.7023C57.5386 70.8792 57.3051 71.024 57.1048 71.1954C56.9076 71.3717 56.7221 71.5362 56.551 71.6884C56.3936 71.8604 56.2485 72.0175 56.1177 72.1604C55.8449 72.4307 55.6845 72.7116 55.5501 72.8712C55.4234 73.0401 55.3559 73.1298 55.3559 73.1298L55.2936 73.2127C54.9482 73.6723 54.3596 73.7057 53.9795 73.2869C53.5999 72.8681 53.5723 72.1561 53.9182 71.6958C53.9213 71.6927 53.9269 71.6847 53.9289 71.6816C53.9289 71.6816 54.0138 71.5727 54.1721 71.3698C54.3382 71.1762 54.5461 70.8477 54.8833 70.5204C55.0473 70.3522 55.2282 70.1647 55.4259 69.9612C55.6385 69.7812 55.8684 69.5863 56.1141 69.3785C56.363 69.1768 56.6496 69.0036 56.9398 68.8007C57.2346 68.6077 57.5667 68.4561 57.9008 68.2724C58.2477 68.1258 58.61 67.9718 58.9916 67.848C59.3789 67.7497 59.7739 67.6117 60.1933 67.5684C61.0241 67.4088 61.9172 67.4348 62.8235 67.5598C63.7319 67.6946 64.6434 68.0262 65.5253 68.4735C66.3826 68.9257 67.2931 69.6587 67.9378 70.307L68.4947 70.9405C68.6761 71.1341 68.8309 71.3587 68.9878 71.5808C69.3168 72.0088 69.5835 72.4932 69.8543 72.9665C70.3509 73.9476 70.7566 74.977 71.0018 76.0305C71.2389 77.0821 71.3937 78.1294 71.3901 79.1297C71.4182 79.6289 71.3666 80.1133 71.3462 80.581C71.3043 81.0468 71.2353 81.4941 71.1704 81.9203C71.0733 82.3391 71.0023 82.748 70.8925 83.1204C70.7739 83.4897 70.6794 83.8479 70.5563 84.1677C70.4275 84.4838 70.3075 84.7795 70.1961 85.053C70.0663 85.3221 69.936 85.5658 69.8226 85.7866C69.5968 86.2531 69.3996 86.4869 69.2739 86.7053C69.1451 86.9063 69.0767 87.0134 69.0767 87.0134C68.8774 87.3239 68.5085 87.3808 68.2521 87.1402C67.9991 86.9026 67.9501 86.4647 68.1386 86.1547Z" fill="#EC99BA"/>
<path d="M68.1386 86.1547C68.1386 86.1547 68.205 86.0458 68.3292 85.8417C68.3915 85.7396 68.4687 85.6134 68.5586 85.4656C68.6577 85.3159 68.7441 85.1482 68.8268 84.9651C68.9157 84.7808 69.0138 84.5766 69.1211 84.3539C69.2131 84.1127 69.3127 83.851 69.4195 83.572C69.5212 83.2912 69.5953 82.9744 69.6939 82.6521C69.7838 82.3255 69.8349 81.9667 69.9146 81.6023C69.9616 81.2299 70.0152 80.8414 70.0438 80.4369C70.051 80.0304 70.0914 79.611 70.0561 79.1805C70.0444 78.3162 69.8885 77.4174 69.6693 76.521C69.442 75.6228 69.0741 74.7555 68.6383 73.9321C68.3972 73.5374 68.1657 73.131 67.877 72.7772C67.7411 72.5928 67.6073 72.4041 67.4479 72.2458L67.2195 71.9958L67.1061 71.8709L67.0488 71.8078L67.0207 71.7762L67.0064 71.7608L66.9993 71.7527C67.01 71.7632 66.9645 71.7193 67.0218 71.7738C66.2702 71.0704 65.6637 70.6293 64.9014 70.2353C64.1529 69.8845 63.3871 69.6259 62.6263 69.5369C61.8681 69.4583 61.1242 69.4521 60.4381 69.6086C60.0901 69.6507 59.7657 69.7812 59.4469 69.8678C59.1337 69.9804 58.8379 70.1177 58.5538 70.2439C58.2825 70.4072 58.0112 70.5353 57.7726 70.7023C57.5386 70.8792 57.3051 71.024 57.1048 71.1954C56.9076 71.3717 56.7221 71.5362 56.551 71.6884C56.3936 71.8604 56.2485 72.0175 56.1177 72.1604C55.8449 72.4307 55.6845 72.7116 55.5501 72.8712C55.4234 73.0401 55.3559 73.1298 55.3559 73.1298L55.2936 73.2127C54.9482 73.6723 54.3596 73.7057 53.9795 73.2869C53.5999 72.8681 53.5723 72.1561 53.9182 71.6958C53.9213 71.6927 53.9269 71.6847 53.9289 71.6816C53.9289 71.6816 54.0138 71.5727 54.1721 71.3698C54.3382 71.1762 54.5461 70.8477 54.8833 70.5204C55.0473 70.3522 55.2282 70.1647 55.4259 69.9612C55.6385 69.7812 55.8684 69.5863 56.1141 69.3785C56.363 69.1768 56.6496 69.0036 56.9398 68.8007C57.2346 68.6077 57.5667 68.4561 57.9008 68.2724C58.2477 68.1258 58.61 67.9718 58.9916 67.848C59.3789 67.7497 59.7739 67.6117 60.1933 67.5684C61.0241 67.4088 61.9172 67.4348 62.8235 67.5598C63.7319 67.6946 64.6434 68.0262 65.5253 68.4735C66.3826 68.9257 67.2931 69.6587 67.9378 70.307L68.4947 70.9405C68.6761 71.1341 68.8309 71.3587 68.9878 71.5808C69.3168 72.0088 69.5835 72.4932 69.8543 72.9665C70.3509 73.9476 70.7566 74.977 71.0018 76.0305C71.2389 77.0821 71.3937 78.1294 71.3901 79.1297C71.4182 79.6289 71.3666 80.1133 71.3462 80.581C71.3043 81.0468 71.2353 81.4941 71.1704 81.9203C71.0733 82.3391 71.0023 82.748 70.8925 83.1204C70.7739 83.4897 70.6794 83.8479 70.5563 84.1677C70.4275 84.4838 70.3075 84.7795 70.1961 85.053C70.0663 85.3221 69.936 85.5658 69.8226 85.7866C69.5968 86.2531 69.3996 86.4869 69.2739 86.7053C69.1451 86.9063 69.0767 87.0134 69.0767 87.0134C68.8774 87.3239 68.5085 87.3808 68.2521 87.1402C67.9991 86.9026 67.9501 86.4647 68.1386 86.1547" stroke="#EC99BA" stroke-width="1.69837"/>
<path d="M75.5512 21.3768C70.9177 19.0001 65.5694 21.6212 63.6059 27.2314C61.642 32.841 63.8072 39.3173 68.4408 41.6953" stroke="#EC99BA" stroke-width="4" stroke-linecap="round" stroke-linejoin="bevel"/>
<path d="M55.8343 50.5159C55.8343 50.5159 53.434 43.4711 48.1526 42.8723" stroke="#EC99BA" stroke-width="4" stroke-linecap="round" stroke-linejoin="bevel"/>
<path fill-rule="evenodd" clip-rule="evenodd" d="M29.1916 8.64258C35.3098 8.64258 40.4783 14.9005 40.4783 22.3084C40.4783 22.4556 40.4798 23.4096 40.4829 24.9765C40.5917 81.2037 40.5156 81.5483 40.419 81.9844C39.8003 84.6568 38.6768 86.9903 37.0761 88.9426C34.6492 91.8798 31.2961 93.5612 27.8729 93.5612C23.2721 93.5612 18.9686 90.5727 16.6419 85.7617C15.5087 83.398 14.9134 80.827 14.8675 78.1069C9.43434 78.0098 4.87183 72.428 4.87183 65.8317C4.87183 63.5682 5.38888 61.3919 6.35707 59.4891C5.54573 58.9243 4.79774 58.2333 4.13815 57.4347C2.14454 55.0202 1.00008 51.6772 1.00008 48.2624C1.00008 44.8483 2.14454 41.5059 4.13815 39.0908C4.80745 38.2805 5.57179 37.5789 6.40152 37.008C5.71025 35.2876 5.35158 33.4181 5.35158 31.4924C5.35158 24.5033 10.2288 18.5986 16.0012 18.5986C16.7717 18.5986 17.5345 18.7025 18.2814 18.9085C19.5608 13.0459 24.0456 8.64258 29.1916 8.64258ZM29.1914 10.8044C24.1579 10.8044 19.9464 15.7503 19.7124 21.7855C18.5781 21.1353 17.3213 20.7604 16.001 20.7604C11.1688 20.7604 7.1371 25.6413 7.1371 31.4922C7.1371 33.9153 7.83655 36.1658 8.9902 37.979C7.64751 38.5011 6.40955 39.3975 5.401 40.6192C3.73438 42.6372 2.7856 45.4073 2.7856 48.2622C2.7856 51.1178 3.73438 53.8879 5.401 55.9059C6.46217 57.1913 7.77677 58.1187 9.19917 58.6265C7.63933 60.4725 6.65786 63.0329 6.65786 65.8316C6.65786 71.3447 10.4581 75.9459 15.0114 75.9459C15.6557 75.9459 16.2815 75.8445 16.8875 75.6706C16.8083 76.3839 16.7286 77.0972 16.6499 77.8104C16.6565 80.2632 17.1664 82.5496 18.1822 84.6684C20.1809 88.8014 23.9147 91.3989 27.8728 91.3989C30.8371 91.3989 33.7131 89.9557 35.8089 87.4188C37.1996 85.7238 38.1617 83.725 38.6945 81.4225C38.8212 80.8522 38.6925 23.5343 38.6925 22.3082C38.6925 16.0373 34.3706 10.8044 29.1914 10.8044Z" fill="#EC99BA"/>
<path d="M40.4829 24.9765L41.4829 24.9746L41.4829 24.9746L40.4829 24.9765ZM40.419 81.9844L41.3954 82.2006L41.3933 82.21L40.419 81.9844ZM37.0761 88.9426L37.8494 89.5766L37.847 89.5796L37.0761 88.9426ZM16.6419 85.7617L15.7416 86.1971L15.7402 86.194L16.6419 85.7617ZM14.8675 78.1069L14.8853 77.1071L15.851 77.1244L15.8673 78.09L14.8675 78.1069ZM6.35707 59.4891L6.9284 58.6684L7.64341 59.1661L7.24834 59.9426L6.35707 59.4891ZM4.13815 57.4347L3.36712 58.0715L3.36704 58.0714L4.13815 57.4347ZM4.13815 39.0908L3.36696 38.4542L3.36712 38.454L4.13815 39.0908ZM6.40152 37.008L7.32941 36.6351L7.62789 37.3779L6.96841 37.8318L6.40152 37.008ZM18.2814 18.9085L19.2584 19.1217L19.0333 20.1532L18.0156 19.8725L18.2814 18.9085ZM19.7124 21.7855L20.7116 21.8242L20.6476 23.4742L19.215 22.6531L19.7124 21.7855ZM8.9902 37.979L9.8339 37.4422L10.4876 38.4697L9.35262 38.911L8.9902 37.979ZM5.401 40.6192L6.17218 41.2559L6.17202 41.256L5.401 40.6192ZM5.401 55.9059L6.17202 55.2691L6.17218 55.2692L5.401 55.9059ZM9.19917 58.6265L9.53544 57.6848L10.8942 58.1699L9.96299 59.272L9.19917 58.6265ZM16.8875 75.6706L16.6117 74.7094L18.046 74.2979L17.8814 75.781L16.8875 75.6706ZM16.6499 77.8104L15.6499 77.8131L15.6498 77.7568L15.6559 77.7008L16.6499 77.8104ZM18.1822 84.6684L17.2819 85.1038L17.2804 85.1007L18.1822 84.6684ZM35.8089 87.4188L36.582 88.0531L36.5798 88.0557L35.8089 87.4188ZM38.6945 81.4225L39.6708 81.6394L39.6688 81.648L38.6945 81.4225ZM29.1916 7.64258C36.0326 7.64258 41.4783 14.5357 41.4783 22.3084H39.4783C39.4783 15.2653 34.5871 9.64258 29.1916 9.64258V7.64258ZM41.4783 22.3084C41.4783 22.4544 41.4798 23.4069 41.4829 24.9746L39.4829 24.9785C39.4798 23.4122 39.4783 22.4569 39.4783 22.3084H41.4783ZM41.4829 24.9746C41.5373 53.0878 41.5455 67.233 41.528 74.4046C41.5192 77.9883 41.5041 79.8375 41.4849 80.8195C41.4662 81.7744 41.4446 81.9781 41.3954 82.2006L39.4427 81.7682C39.4442 81.7613 39.4487 81.7574 39.4563 81.647C39.4656 81.5124 39.4758 81.2645 39.4852 80.7803C39.5041 79.8179 39.5192 77.985 39.528 74.3997C39.5455 67.2332 39.5373 53.0924 39.4829 24.9784L41.4829 24.9746ZM41.3933 82.21C40.7427 85.0199 39.5553 87.496 37.8494 89.5766L36.3028 88.3086C37.7983 86.4845 38.8579 84.2938 39.4448 81.7589L41.3933 82.21ZM37.847 89.5796C35.2542 92.7176 31.63 94.5612 27.8729 94.5612V92.5612C30.9621 92.5612 34.0443 91.042 36.3052 88.3056L37.847 89.5796ZM27.8729 94.5612C22.8176 94.5612 18.2021 91.2845 15.7416 86.1971L17.5421 85.3263C19.7351 89.8608 23.7265 92.5612 27.8729 92.5612V94.5612ZM15.7402 86.194C14.5422 83.6953 13.9159 80.9819 13.8676 78.1238L15.8673 78.09C15.911 80.6721 16.4751 83.1006 17.5436 85.3294L15.7402 86.194ZM14.8496 79.1068C8.70679 78.997 3.87183 72.7926 3.87183 65.8317H5.87183C5.87183 72.0635 10.1619 77.0227 14.8853 77.1071L14.8496 79.1068ZM3.87183 65.8317C3.87183 63.4168 4.42337 61.0844 5.46581 59.0356L7.24834 59.9426C6.35438 61.6995 5.87183 63.7196 5.87183 65.8317H3.87183ZM5.78574 60.3098C4.89721 59.6913 4.08258 58.9377 3.36712 58.0715L4.90918 56.7979C5.51291 57.5289 6.19426 58.1573 6.9284 58.6684L5.78574 60.3098ZM3.36704 58.0714C1.21187 55.4612 8.39233e-05 51.8873 8.39233e-05 48.2624H2.00008C2.00008 51.4671 3.07721 54.5792 4.90926 56.798L3.36704 58.0714ZM8.39233e-05 48.2624C8.39233e-05 44.6381 1.21192 41.0649 3.36696 38.4542L4.90934 39.7274C3.07716 41.947 2.00008 45.0585 2.00008 48.2624H8.39233e-05ZM3.36712 38.454C4.09377 37.5742 4.92635 36.8092 5.83463 36.1842L6.96841 37.8318C6.21723 38.3487 5.52113 38.9867 4.90918 39.7276L3.36712 38.454ZM5.47363 37.3808C4.73343 35.5387 4.35158 33.5424 4.35158 31.4924H6.35158C6.35158 33.2939 6.68706 35.0365 7.32941 36.6351L5.47363 37.3808ZM4.35158 31.4924C4.35158 24.1384 9.50613 17.5986 16.0012 17.5986V19.5986C10.9515 19.5986 6.35158 24.8681 6.35158 31.4924H4.35158ZM16.0012 17.5986C16.8623 17.5986 17.7145 17.7148 18.5473 17.9445L18.0156 19.8725C17.3544 19.6902 16.681 19.5986 16.0012 19.5986V17.5986ZM17.3044 18.6953C18.652 12.5197 23.4404 7.64258 29.1916 7.64258V9.64258C24.6508 9.64258 20.4695 13.5721 19.2584 19.1217L17.3044 18.6953ZM29.1914 11.8044C24.8615 11.8044 20.9319 16.1423 20.7116 21.8242L18.7131 21.7467C18.9608 15.3582 23.4543 9.80444 29.1914 9.80444V11.8044ZM19.215 22.6531C18.2145 22.0795 17.1274 21.7604 16.001 21.7604V19.7604C17.5151 19.7604 18.9418 20.1911 20.2097 20.9179L19.215 22.6531ZM16.001 21.7604C11.8914 21.7604 8.1371 26.0062 8.1371 31.4922H6.1371C6.1371 25.2764 10.4461 19.7604 16.001 19.7604V21.7604ZM8.1371 31.4922C8.1371 33.7239 8.78165 35.7884 9.8339 37.4422L8.14651 38.5158C6.89144 36.5433 6.1371 34.1067 6.1371 31.4922H8.1371ZM9.35262 38.911C8.17745 39.368 7.07775 40.1588 6.17218 41.2559L4.62981 39.9826C5.74135 38.6361 7.11756 37.6342 8.62779 37.047L9.35262 38.911ZM6.17202 41.256C4.66701 43.0783 3.7856 45.6175 3.7856 48.2622H1.7856C1.7856 45.1972 2.80175 42.196 4.62997 39.9824L6.17202 41.256ZM3.7856 48.2622C3.7856 50.9076 4.66702 53.4468 6.17202 55.2691L4.62997 56.5427C2.80173 54.3291 1.7856 51.3279 1.7856 48.2622H3.7856ZM6.17218 55.2692C7.12561 56.4242 8.29303 57.2412 9.53544 57.6848L8.8629 59.5683C7.26051 58.9962 5.79874 57.9585 4.62981 56.5425L6.17218 55.2692ZM9.96299 59.272C8.55983 60.9325 7.65786 63.2627 7.65786 65.8316H5.65786C5.65786 62.8032 6.71883 60.0125 8.43535 57.9811L9.96299 59.272ZM7.65786 65.8316C7.65786 70.9799 11.1808 74.9459 15.0114 74.9459V76.9459C9.73533 76.9459 5.65786 71.7095 5.65786 65.8316H7.65786ZM15.0114 74.9459C15.5497 74.9459 16.0824 74.8613 16.6117 74.7094L17.1632 76.6319C16.4807 76.8277 15.7616 76.9459 15.0114 76.9459V74.9459ZM17.8814 75.781C17.8021 76.4952 17.7225 77.2072 17.6439 77.9201L15.6559 77.7008C15.7347 76.9871 15.8145 76.2726 15.8936 75.5603L17.8814 75.781ZM17.6499 77.8077C17.6562 80.1189 18.1355 82.2577 19.0839 84.2361L17.2804 85.1007C16.1974 82.8415 15.6569 80.4075 15.6499 77.8131L17.6499 77.8077ZM19.0824 84.233C20.9476 88.0899 24.3695 90.3989 27.8728 90.3989V92.3989C23.4598 92.3989 19.4141 89.5128 17.2819 85.1038L19.0824 84.233ZM27.8728 90.3989C30.5033 90.3989 33.1082 89.1177 35.0379 86.7819L36.5798 88.0557C34.3179 90.7937 31.1709 92.3989 27.8728 92.3989V90.3989ZM35.0358 86.7845C36.3215 85.2175 37.2194 83.3614 37.7203 81.197L39.6688 81.648C39.1039 84.0886 38.0777 86.23 36.582 88.0531L35.0358 86.7845ZM37.7183 81.2057C37.698 81.2973 37.6981 81.3716 37.7016 81.3034C37.7029 81.2788 37.7044 81.2382 37.7061 81.1785C37.7093 81.0606 37.7125 80.889 37.7155 80.6648C37.7215 80.2175 37.7265 79.5751 37.7308 78.7637C37.7394 77.1416 37.7448 74.8528 37.7477 72.1167C37.7534 66.6449 37.7492 59.3892 37.741 52.1124C37.7247 37.5615 37.6925 22.9214 37.6925 22.3082H39.6925C39.6925 22.9211 39.7247 37.553 39.741 52.1101C39.7492 59.3873 39.7534 66.6447 39.7477 72.1188C39.7448 74.8556 39.7394 77.1478 39.7308 78.7743C39.7265 79.5871 39.7214 80.2359 39.7153 80.6914C39.7123 80.9186 39.709 81.1015 39.7053 81.234C39.7035 81.2995 39.7014 81.3582 39.699 81.4059C39.6988 81.4101 39.6951 81.5299 39.6707 81.6394L37.7183 81.2057ZM37.6925 22.3082C37.6925 16.4021 33.6479 11.8044 29.1914 11.8044V9.80444C35.0934 9.80444 39.6925 15.6725 39.6925 22.3082H37.6925Z" fill="#EC99BA"/>
<path d="M18.0897 71.4304C16.0991 66.1072 18.0508 59.8369 22.4468 57.4268" stroke="#EC99BA" stroke-width="4" stroke-linecap="round" stroke-linejoin="bevel"/>
<path d="M25.2945 45.6448C30.0307 46.7719 33.1151 52.3357 32.1842 58.0691" stroke="#EC99BA" stroke-width="4" stroke-linecap="round" stroke-linejoin="bevel"/>
<path d="M22.1997 57.2027C19.8142 56.4542 17.7721 54.4808 16.6368 51.8337" stroke="#EC99BA" stroke-width="4" stroke-linecap="round" stroke-linejoin="bevel"/>
<path d="M24.444 28.0042C27.9514 28.8201 31.0573 31.4467 32.9022 35.1492" stroke="#EC99BA" stroke-width="4" stroke-linecap="round" stroke-linejoin="bevel"/>
<path fill-rule="evenodd" clip-rule="evenodd" d="M18.764 86.1547C18.764 86.1547 18.6975 86.0458 18.5734 85.8417C18.5111 85.7396 18.4339 85.6134 18.344 85.4656C18.2449 85.3159 18.1585 85.1482 18.0758 84.9651C17.9869 84.7808 17.8888 84.5766 17.7815 84.3539C17.6895 84.1127 17.5899 83.851 17.4831 83.572C17.3814 83.2912 17.3073 82.9744 17.2087 82.6521C17.1188 82.3255 17.0677 81.9667 16.988 81.6023C16.941 81.2299 16.8874 80.8414 16.8587 80.4369C16.8516 80.0304 16.8112 79.611 16.8465 79.1805C16.8582 78.3162 17.0141 77.4174 17.2332 76.521C17.4606 75.6228 17.8285 74.7555 18.2643 73.9321C18.5054 73.5374 18.7369 73.131 19.0256 72.7772C19.1615 72.5928 19.2953 72.4041 19.4547 72.2458L19.6831 71.9958L19.7965 71.8709L19.8538 71.8078L19.8819 71.7762L19.8962 71.7608L19.9033 71.7527C19.8926 71.7632 19.9381 71.7193 19.8808 71.7738C20.6324 71.0704 21.2389 70.6293 22.0011 70.2353C22.7496 69.8845 23.5155 69.6259 24.2763 69.5369C25.0345 69.4583 25.7784 69.4521 26.4645 69.6086C26.8125 69.6507 27.1369 69.7812 27.4557 69.8678C27.7689 69.9804 28.0647 70.1177 28.3488 70.2439C28.6201 70.4072 28.8914 70.5353 29.13 70.7023C29.364 70.8792 29.5975 71.024 29.7978 71.1954C29.995 71.3717 30.1805 71.5362 30.3516 71.6884C30.509 71.8604 30.6541 72.0175 30.7849 72.1604C31.0577 72.4307 31.2181 72.7116 31.3525 72.8712C31.4792 73.0401 31.5466 73.1298 31.5466 73.1298L31.609 73.2127C31.9544 73.6723 32.5429 73.7057 32.9231 73.2869C33.3027 72.8681 33.3303 72.1561 32.9844 71.6958C32.9813 71.6927 32.9757 71.6847 32.9736 71.6816C32.9736 71.6816 32.8888 71.5727 32.7304 71.3698C32.5644 71.1762 32.3565 70.8477 32.0193 70.5204C31.8552 70.3522 31.6744 70.1647 31.4767 69.9612C31.2641 69.7812 31.0342 69.5863 30.7884 69.3785C30.5396 69.1768 30.253 69.0036 29.9628 68.8007C29.668 68.6077 29.3359 68.4561 29.0018 68.2724C28.6548 68.1258 28.2926 67.9718 27.9109 67.848C27.5237 67.7497 27.1287 67.6117 26.7093 67.5684C25.8785 67.4088 24.9854 67.4348 24.0791 67.5598C23.1706 67.6946 22.2592 68.0262 21.3773 68.4735C20.52 68.9257 19.6095 69.6587 18.9648 70.307L18.4079 70.9405C18.2265 71.1341 18.0717 71.3587 17.9148 71.5808C17.5858 72.0088 17.3191 72.4932 17.0483 72.9665C16.5517 73.9476 16.146 74.977 15.9008 76.0305C15.6637 77.0821 15.5089 78.1294 15.5125 79.1297C15.4844 79.6289 15.536 80.1133 15.5564 80.581C15.5983 81.0468 15.6673 81.4941 15.7322 81.9203C15.8292 82.3391 15.9003 82.748 16.0101 83.1204C16.1286 83.4897 16.2232 83.8479 16.3463 84.1677C16.475 84.4838 16.5951 84.7795 16.7065 85.053C16.8363 85.3221 16.9665 85.5658 17.08 85.7866C17.3058 86.2531 17.503 86.4869 17.6287 86.7053C17.7574 86.9063 17.8259 87.0134 17.8259 87.0134C18.0252 87.3239 18.3941 87.3808 18.6505 87.1402C18.9034 86.9026 18.9525 86.4647 18.764 86.1547Z" fill="#EC99BA"/>
<path d="M18.764 86.1547C18.764 86.1547 18.6975 86.0458 18.5734 85.8417C18.5111 85.7396 18.4339 85.6134 18.344 85.4656C18.2449 85.3159 18.1585 85.1482 18.0758 84.9651C17.9869 84.7808 17.8888 84.5766 17.7815 84.3539C17.6895 84.1127 17.5899 83.851 17.4831 83.572C17.3814 83.2912 17.3073 82.9744 17.2087 82.6521C17.1188 82.3255 17.0677 81.9667 16.988 81.6023C16.941 81.2299 16.8874 80.8414 16.8587 80.4369C16.8516 80.0304 16.8112 79.611 16.8465 79.1805C16.8582 78.3162 17.0141 77.4174 17.2332 76.521C17.4606 75.6228 17.8285 74.7555 18.2643 73.9321C18.5054 73.5374 18.7369 73.131 19.0256 72.7772C19.1615 72.5928 19.2953 72.4041 19.4547 72.2458L19.6831 71.9958L19.7965 71.8709L19.8538 71.8078L19.8819 71.7762L19.8962 71.7608L19.9033 71.7527C19.8926 71.7632 19.9381 71.7193 19.8808 71.7738C20.6324 71.0704 21.2389 70.6293 22.0011 70.2353C22.7496 69.8845 23.5155 69.6259 24.2763 69.5369C25.0345 69.4583 25.7784 69.4521 26.4645 69.6086C26.8125 69.6507 27.1369 69.7812 27.4557 69.8678C27.7689 69.9804 28.0647 70.1177 28.3488 70.2439C28.6201 70.4072 28.8914 70.5353 29.13 70.7023C29.364 70.8792 29.5975 71.024 29.7978 71.1954C29.995 71.3717 30.1805 71.5362 30.3516 71.6884C30.509 71.8604 30.6541 72.0175 30.7849 72.1604C31.0577 72.4307 31.2181 72.7116 31.3525 72.8712C31.4792 73.0401 31.5466 73.1298 31.5466 73.1298L31.609 73.2127C31.9544 73.6723 32.5429 73.7057 32.9231 73.2869C33.3027 72.8681 33.3303 72.1561 32.9844 71.6958C32.9813 71.6927 32.9757 71.6847 32.9736 71.6816C32.9736 71.6816 32.8888 71.5727 32.7304 71.3698C32.5644 71.1762 32.3565 70.8477 32.0193 70.5204C31.8552 70.3522 31.6744 70.1647 31.4767 69.9612C31.2641 69.7812 31.0342 69.5863 30.7884 69.3785C30.5396 69.1768 30.253 69.0036 29.9628 68.8007C29.668 68.6077 29.3359 68.4561 29.0018 68.2724C28.6548 68.1258 28.2926 67.9718 27.9109 67.848C27.5237 67.7497 27.1287 67.6117 26.7093 67.5684C25.8785 67.4088 24.9854 67.4348 24.0791 67.5598C23.1706 67.6946 22.2592 68.0262 21.3773 68.4735C20.52 68.9257 19.6095 69.6587 18.9648 70.307L18.4078 70.9405C18.2265 71.1341 18.0717 71.3587 17.9148 71.5808C17.5858 72.0088 17.3191 72.4932 17.0483 72.9665C16.5517 73.9476 16.146 74.977 15.9008 76.0305C15.6637 77.0821 15.5089 78.1294 15.5125 79.1297C15.4844 79.6289 15.536 80.1133 15.5564 80.581C15.5983 81.0468 15.6673 81.4941 15.7322 81.9203C15.8292 82.3391 15.9003 82.748 16.0101 83.1204C16.1286 83.4897 16.2232 83.8479 16.3463 84.1677C16.475 84.4838 16.5951 84.7795 16.7065 85.053C16.8363 85.3221 16.9665 85.5658 17.08 85.7866C17.3058 86.2531 17.503 86.4869 17.6287 86.7053C17.7574 86.9063 17.8259 87.0134 17.8259 87.0134C18.0252 87.3239 18.3941 87.3808 18.6505 87.1402C18.9034 86.9026 18.9525 86.4647 18.764 86.1547" stroke="#EC99BA" stroke-width="2"/>
<path d="M11.6847 21.2384C16.3183 18.8617 21.6666 21.4828 23.63 27.093C25.594 32.7026 23.4287 39.1789 18.7952 41.5568" stroke="#EC99BA" stroke-width="4" stroke-linecap="round" stroke-linejoin="bevel"/>
<path d="M31.0682 50.5159C31.0682 50.5159 33.4685 43.4711 38.7499 42.8723" stroke="#EC99BA" stroke-width="4" stroke-linecap="round" stroke-linejoin="bevel"/>
<path fill-rule="evenodd" clip-rule="evenodd" d="M244.153 7.79346H253.963V11.7935H244.153C236.982 11.7935 231.169 17.6065 231.169 24.7772V42.6101H227.169V24.7772C227.169 15.3973 234.773 7.79346 244.153 7.79346ZM227.169 68.0857H231.169V77.4267C231.169 84.5974 236.982 90.4105 244.153 90.4105H262.469V94.4105H244.153C234.773 94.4105 227.169 86.8066 227.169 77.4267V68.0857ZM287.987 94.4105H296.947C306.327 94.4105 313.931 86.8066 313.931 77.4267V59.594H309.931V77.4267C309.931 84.5974 304.118 90.4105 296.947 90.4105H287.987V94.4105ZM313.931 34.1184V24.7772C313.931 15.3973 306.327 7.79346 296.947 7.79346H290.114H279.481V11.7935H290.114H296.947C304.118 11.7935 309.931 17.6065 309.931 24.7772V34.1184H313.931Z" fill="#8881B9"/>
<rect x="256.09" y="32.4199" width="28.9204" height="6.79349" rx="3.39674" stroke="#8881B9" stroke-width="4"/>
<rect x="256.09" y="62.9905" width="28.9204" height="6.79349" rx="3.39674" stroke="#8881B9" stroke-width="4"/>
<path fill-rule="evenodd" clip-rule="evenodd" d="M263.619 37.5149V42.5959C263.619 46.0395 266.294 48.8583 269.68 49.0869L269.986 51L269.647 53.119C266.277 53.3637 263.619 56.1753 263.619 59.6077V64.6887H259.619V59.6077C259.619 56.1099 261.328 53.0114 263.957 51.1018C261.328 49.1923 259.619 46.0937 259.619 42.5959V37.5149H263.619ZM270.524 53.1138C273.931 53.3201 276.631 56.1487 276.631 59.6077V64.6887H280.631V59.6077C280.631 56.1099 278.921 53.0114 276.293 51.1018C278.921 49.1923 280.631 46.0937 280.631 42.5959V37.5149H276.631V42.5959C276.631 46.066 273.914 48.9016 270.491 49.0917L270.186 51L270.524 53.1138Z" fill="#8881B9"/>
<path d="M266.297 9.49186L254.814 16.846L254.814 2.13769L266.297 9.49186Z" stroke="#8881B9" stroke-width="4" stroke-linejoin="round"/>
<path d="M275.654 92.7121L287.137 100.066L287.137 85.3579L275.654 92.7121Z" stroke="#8881B9" stroke-width="4" stroke-linejoin="round"/>
<path d="M312.23 46.4314L304.863 34.9674L319.596 34.9674L312.23 46.4314Z" stroke="#8881B9" stroke-width="4" stroke-linejoin="round"/>
<path d="M228.871 55.7725L221.504 67.2365L236.237 67.2365L228.871 55.7725Z" stroke="#8881B9" stroke-width="4" stroke-linejoin="round"/>
<path fill-rule="evenodd" clip-rule="evenodd" d="M154.938 34.1182H151.536V49.4033H136.225V52.8001H151.536V68.0856H154.938V52.8001H170.249V49.4033H154.938V34.1182Z" fill="#53A8CB"/>
<path fill-rule="evenodd" clip-rule="evenodd" d="M390.329 34.1182H386.927V49.4033H371.616V52.8001H386.927V68.0856H390.329V52.8001H405.64V49.4033H390.329V34.1182Z" fill="#53A8CB"/>
<path d="M486.806 9.70776L455.756 62.7045H517.856L486.806 9.70776Z" stroke="#EC99BA" stroke-width="4"/>
<path d="M488.385 64.2317V64.2317C488.385 82.8668 503.491 97.9735 522.126 97.9735H524.23C543.962 97.9735 559.957 81.9782 559.957 62.2469V62.2469C559.957 42.5156 543.902 26.5203 524.171 26.5203V26.5203" stroke="#EC99BA" stroke-width="4" stroke-linecap="round" stroke-linejoin="round"/>
</svg>
