<svg width="211" height="29" viewBox="0 0 211 29" fill="none" xmlns="http://www.w3.org/2000/svg">
<path d="M0.72 3.36C0.72 2.48 1.09333 1.76 1.84 1.2C2.61333 0.613332 3.69333 0.319999 5.08 0.319999C7.98667 0.319999 9.44 1.33333 9.44 3.36C9.44 4.48 9.06667 5.26667 8.32 5.72C7.6 6.17333 6.52 6.4 5.08 6.4C3.82667 6.4 2.78667 6.16 1.96 5.68C1.13333 5.2 0.72 4.42666 0.72 3.36ZM9.4 23.72C9.4 25.32 9.06667 26.44 8.4 27.08C7.73333 27.6933 6.56 28 4.88 28C3.30667 28 2.22667 27.64 1.64 26.92C1.08 26.1733 0.8 24.96 0.8 23.28V13.44C0.8 12.08 1.16 10.9867 1.88 10.16C2.62667 9.33333 3.61333 8.92 4.84 8.92C6.28 8.92 7.4 9.24 8.2 9.88C9 10.4933 9.4 11.64 9.4 13.32V23.72ZM39.4275 24.2C39.4275 25.3733 39.0808 26.3067 38.3875 27C37.6942 27.6667 36.6808 28 35.3475 28C35.0008 28 34.6542 27.96 34.3075 27.88C33.9608 27.8 33.5875 27.6533 33.1875 27.44C32.8142 27.2267 32.4808 27.0267 32.1875 26.84C31.8942 26.6533 31.5208 26.3733 31.0675 26C30.6408 25.6 30.2942 25.2933 30.0275 25.08C29.7875 24.84 29.4008 24.4667 28.8675 23.96C28.3342 23.4533 27.9475 23.08 27.7075 22.84L20.3875 15.92V24.6C20.3875 25.9067 20.1342 26.8 19.6275 27.28C19.1475 27.76 18.3742 28 17.3075 28C16.1342 28 15.2675 27.7333 14.7075 27.2C14.1475 26.6667 13.8675 25.7733 13.8675 24.52V5.2C13.8675 3.68 14.2542 2.53333 15.0275 1.76C15.8008 0.986665 16.9075 0.599998 18.3475 0.599998C19.3342 0.599998 20.1208 0.759998 20.7075 1.08C21.3208 1.37333 22.0408 1.92 22.8675 2.72L32.9875 12.8V4.08C32.9875 2.93333 33.2675 2.08 33.8275 1.52C34.4142 0.933332 35.2008 0.639999 36.1875 0.639999C37.3342 0.639999 38.1608 0.906666 38.6675 1.44C39.1742 1.97333 39.4275 2.84 39.4275 4.04V24.2ZM52.605 14.16C53.565 14.16 54.325 14.2667 54.885 14.48C55.445 14.6667 55.845 14.9867 56.085 15.44C56.325 15.8933 56.445 16.5067 56.445 17.28C56.445 18.2667 56.1117 18.96 55.445 19.36C54.7783 19.7333 53.7117 19.92 52.245 19.92H46.765C44.605 19.92 43.525 18.9867 43.525 17.12C43.525 15.1467 44.6983 14.16 47.045 14.16H52.605ZM71.2191 22C71.2191 23.52 71.0324 24.7333 70.6591 25.64C70.2857 26.52 69.7657 27.1333 69.0991 27.48C68.4591 27.8267 67.6057 28 66.5391 28C64.9657 28 63.8191 27.5867 63.0991 26.76C62.4057 25.9067 62.0457 24.4133 62.0191 22.28L61.9391 7.52H58.5391C56.8591 7.52 55.5924 7.25333 54.7391 6.72C53.9124 6.18667 53.4991 5.24 53.4991 3.88C53.4991 3.05333 53.6591 2.4 53.9791 1.92C54.3257 1.44 54.8324 1.10667 55.4991 0.919998C56.1657 0.706664 57.0591 0.599998 58.1791 0.599998H75.2991C76.7924 0.599998 77.8724 0.866665 78.5391 1.4C79.2057 1.93333 79.5391 2.85333 79.5391 4.16C79.5391 5.04 79.3391 5.73333 78.9391 6.24C78.5657 6.72 78.0591 7.05333 77.4191 7.24C76.7791 7.42667 75.9524 7.52 74.9391 7.52H71.2191V22ZM89.7756 18.52C89.7756 17.1333 89.6023 15.92 89.2556 14.88C88.909 13.8133 88.4023 13.28 87.7356 13.28C87.2823 13.28 86.8823 13.5467 86.5356 14.08C86.189 14.6133 85.9356 15.2667 85.7756 16.04C85.6156 16.8133 85.5356 17.64 85.5356 18.52C85.5356 19.88 85.7223 21.08 86.0956 22.12C86.469 23.1333 87.0023 23.64 87.6956 23.64C88.389 23.64 88.909 23.1333 89.2556 22.12C89.6023 21.1067 89.7756 19.9067 89.7756 18.52ZM87.6956 28.28C85.6156 28.28 83.7356 27.9067 82.0556 27.16C80.4023 26.4133 79.069 25.2933 78.0556 23.8C77.069 22.3067 76.5756 20.56 76.5756 18.56C76.5756 15.52 77.6156 13.1067 79.6956 11.32C81.7756 9.53333 84.4423 8.64 87.6956 8.64C90.949 8.64 93.6023 9.53333 95.6556 11.32C97.709 13.1067 98.7356 15.52 98.7356 18.56C98.7356 21.5733 97.6823 23.9467 95.5756 25.68C93.4956 27.4133 90.869 28.28 87.6956 28.28ZM110.85 19.56C110.85 21.08 111.437 21.84 112.61 21.84C113.01 21.84 113.357 21.72 113.65 21.48C113.97 21.2133 114.21 20.8533 114.37 20.4C114.53 19.9467 114.61 19.4267 114.61 18.84V13.48C114.61 12.5733 114.77 11.7867 115.09 11.12C115.41 10.4267 115.877 9.89333 116.49 9.52C117.103 9.14667 117.823 8.96 118.65 8.96C120.09 8.96 121.21 9.28 122.01 9.92C122.81 10.5333 123.21 11.68 123.21 13.36V23.76C123.21 25.3867 122.877 26.5067 122.21 27.12C121.543 27.7333 120.37 28.04 118.69 28.04C117.97 28.04 117.357 27.9733 116.85 27.84C116.343 27.68 115.93 27.4533 115.61 27.16C115.317 26.8667 115.09 26.48 114.93 26C113.837 26.72 112.677 27.2267 111.45 27.52C110.25 27.8133 108.903 27.96 107.41 27.96C105.517 27.96 104.157 27.2267 103.33 25.76C102.503 24.2667 102.09 21.8267 102.09 18.44C102.09 16.76 102.13 15.4 102.21 14.36C102.29 13.2933 102.41 12.3867 102.57 11.64C102.757 10.8667 103.023 10.2933 103.37 9.92C103.743 9.54667 104.17 9.28 104.65 9.12C105.157 8.96 105.81 8.88 106.61 8.88C108.103 8.88 109.17 9.16 109.81 9.72C110.477 10.28 110.81 11.12 110.81 12.24L110.85 19.56ZM138.93 13.04C138.93 12.4267 138.583 12.12 137.89 12.12C137.383 12.12 136.93 12.4 136.53 12.96C136.13 13.52 135.823 14.2267 135.61 15.08C135.397 15.9067 135.29 16.7733 135.29 17.68C135.29 19.0133 135.69 20.0933 136.49 20.92C137.317 21.7467 138.423 22.16 139.81 22.16C141.17 22.16 142.343 22 143.33 21.68C143.73 21.5733 144.21 21.3733 144.77 21.08C145.357 20.7867 145.77 20.64 146.01 20.64C146.383 20.64 146.69 20.7067 146.93 20.84C147.17 20.9733 147.33 21.1333 147.41 21.32C147.517 21.5067 147.57 21.7067 147.57 21.92C147.57 22.2933 147.437 22.7467 147.17 23.28C146.93 23.8133 146.543 24.3733 146.01 24.96C145.477 25.5467 144.85 26.0933 144.13 26.6C143.437 27.08 142.57 27.48 141.53 27.8C140.49 28.12 139.397 28.28 138.25 28.28C134.943 28.28 132.223 27.4 130.09 25.64C127.957 23.8533 126.89 21.4133 126.89 18.32C126.89 16.3467 127.37 14.6267 128.33 13.16C129.317 11.6667 130.663 10.5467 132.37 9.8C134.077 9.02667 136.037 8.64 138.25 8.64C140.357 8.64 142.09 8.89333 143.45 9.4C144.837 9.88 145.823 10.5333 146.41 11.36C146.997 12.1867 147.29 13.1733 147.29 14.32C147.29 14.8267 147.183 15.3467 146.97 15.88C146.783 16.4133 146.477 16.9467 146.05 17.48C145.65 18.0133 145.05 18.4533 144.25 18.8C143.45 19.12 142.517 19.28 141.45 19.28C140.97 19.28 140.57 19.2533 140.25 19.2C139.957 19.1467 139.637 19.04 139.29 18.88C138.97 18.6933 138.73 18.4 138.57 18C138.41 17.6 138.33 17.0933 138.33 16.48C138.33 15.9467 138.423 15.3067 138.61 14.56C138.823 13.7867 138.93 13.28 138.93 13.04ZM163.555 17.28C163.555 15.76 162.969 15 161.795 15C161.582 15 161.382 15.0267 161.195 15.08C161.035 15.1333 160.875 15.2 160.715 15.28C160.582 15.36 160.449 15.48 160.315 15.64C160.209 15.7733 160.102 15.9333 159.995 16.12C159.915 16.28 159.849 16.48 159.795 16.72C159.769 16.96 159.755 17.2267 159.755 17.52V21.92C159.755 24.1067 159.395 25.6667 158.675 26.6C157.982 27.5067 156.915 27.96 155.475 27.96C153.982 27.96 152.889 27.5467 152.195 26.72C151.502 25.8667 151.155 24.3733 151.155 22.24L151.075 5.2C151.075 3.54667 151.475 2.33333 152.275 1.56C153.075 0.786665 154.142 0.399998 155.475 0.399998C156.889 0.399998 157.955 0.693331 158.675 1.28C159.395 1.86667 159.755 3.05333 159.755 4.84V10.64C161.729 9.44 164.129 8.84 166.955 8.84C168.235 8.84 169.262 9.17333 170.035 9.84C170.809 10.48 171.382 11.5067 171.755 12.92C172.129 14.3333 172.315 16.1867 172.315 18.48C172.315 19.6533 172.289 20.6667 172.235 21.52C172.209 22.3733 172.155 23.16 172.075 23.88C171.995 24.5733 171.875 25.1467 171.715 25.6C171.555 26.0533 171.369 26.44 171.155 26.76C170.942 27.08 170.662 27.3333 170.315 27.52C169.995 27.68 169.635 27.8 169.235 27.88C168.835 27.96 168.355 28 167.795 28C166.302 28 165.222 27.7333 164.555 27.2C163.915 26.64 163.595 25.8 163.595 24.68L163.555 17.28ZM177.996 28C177.383 27.9867 176.89 27.8933 176.516 27.72C176.143 27.5333 175.863 27.2333 175.676 26.82C175.49 26.4067 175.396 25.8533 175.396 25.16V16.7C175.396 15.9933 175.603 15.42 176.016 14.98C176.43 14.5267 176.976 14.3 177.656 14.3C178.456 14.3 179.043 14.4467 179.416 14.74C179.803 15.0333 179.996 15.6267 179.996 16.52V24.54H183.416C184.19 24.54 184.73 24.6533 185.036 24.88C185.356 25.1067 185.516 25.5733 185.516 26.28C185.516 27 185.336 27.4667 184.976 27.68C184.616 27.8933 184.03 28 183.216 28H177.996ZM190.629 28.12C189.576 28.12 188.702 27.6933 188.009 26.84C187.316 25.9733 186.969 24.7933 186.969 23.3C186.969 21.78 187.309 20.5733 187.989 19.68C188.682 18.7733 189.562 18.32 190.629 18.32C191.709 18.32 192.709 18.7 193.629 19.46C193.989 18.7933 194.569 18.46 195.369 18.46C196.089 18.46 196.649 18.62 197.049 18.94C197.449 19.2467 197.649 19.82 197.649 20.66V25.86C197.649 26.66 197.482 27.22 197.149 27.54C196.816 27.8467 196.229 28 195.389 28C194.509 28 193.929 27.7533 193.649 27.26C192.796 27.8333 191.789 28.12 190.629 28.12ZM193.349 21.38C193.122 20.9933 192.829 20.8 192.469 20.8C192.122 20.8 191.842 21.0533 191.629 21.56C191.416 22.0667 191.309 22.6467 191.309 23.3C191.309 23.9133 191.409 24.46 191.609 24.94C191.809 25.42 192.089 25.66 192.449 25.66C192.822 25.66 193.122 25.48 193.349 25.12V21.38ZM203.949 19.28C204.829 18.6267 205.783 18.3 206.809 18.3C207.849 18.3 208.716 18.74 209.409 19.62C210.103 20.5 210.449 21.6133 210.449 22.96C210.449 24.5867 209.923 25.86 208.869 26.78C207.816 27.6867 206.449 28.14 204.769 28.14C203.743 28.14 202.843 27.9933 202.069 27.7C201.309 27.4067 200.709 26.9667 200.269 26.38C199.843 25.7933 199.623 25.0867 199.609 24.26L199.569 16.72C199.569 15.8933 199.769 15.2867 200.169 14.9C200.569 14.5133 201.103 14.32 201.769 14.32C202.516 14.32 203.063 14.5 203.409 14.86C203.769 15.2067 203.949 15.7667 203.949 16.54V19.28ZM203.969 24.94C204.209 25.3933 204.543 25.62 204.969 25.62C205.329 25.62 205.609 25.3933 205.809 24.94C206.009 24.4867 206.109 23.9667 206.109 23.38C206.109 23.06 206.083 22.7467 206.029 22.44C205.976 22.1333 205.903 21.86 205.809 21.62C205.716 21.3667 205.596 21.1667 205.449 21.02C205.303 20.86 205.136 20.78 204.949 20.78C204.536 20.78 204.209 21.0267 203.969 21.52C203.969 21.6933 203.969 22.1933 203.969 23.02C203.969 23.8333 203.969 24.4733 203.969 24.94Z" fill="#53A8CB"/>
</svg>
