<svg width="23" height="20" viewBox="0 0 23 20" fill="none" xmlns="http://www.w3.org/2000/svg">
<path d="M1.80697 8.464C1.80697 8.096 1.81497 7.824 1.83097 7.648C1.86297 7.456 1.93497 7.24 2.04697 7C2.27097 6.584 2.89497 6.376 3.91897 6.376C4.68697 6.376 5.23097 6.512 5.55097 6.784C5.82297 7.008 5.96697 7.352 5.98297 7.816C5.99897 7.976 6.00697 8.208 6.00697 8.512V16.912C6.00697 17.28 5.99097 17.56 5.95897 17.752C5.94297 17.928 5.87097 18.136 5.74297 18.376C5.53497 18.792 4.91897 19 3.89497 19C2.88697 19 2.27097 18.784 2.04697 18.352C1.93497 18.112 1.86297 17.904 1.83097 17.728C1.81497 17.552 1.80697 17.272 1.80697 16.888V8.464ZM5.74297 4.024C5.63097 4.248 5.42297 4.408 5.11897 4.504C4.81497 4.6 4.40697 4.648 3.89497 4.648C3.39897 4.648 2.99897 4.6 2.69497 4.504C2.39097 4.408 2.17497 4.24 2.04697 4C1.93497 3.76 1.86297 3.552 1.83097 3.376C1.81497 3.184 1.80697 2.904 1.80697 2.536C1.80697 2.168 1.81497 1.896 1.83097 1.72C1.86297 1.528 1.93497 1.32 2.04697 1.096C2.27097 0.663999 2.89497 0.447999 3.91897 0.447999C4.92697 0.447999 5.53497 0.663999 5.74297 1.096C5.87097 1.336 5.94297 1.552 5.95897 1.744C5.99097 1.92 6.00697 2.192 6.00697 2.56C6.00697 2.928 5.99097 3.208 5.95897 3.4C5.94297 3.576 5.87097 3.784 5.74297 4.024ZM14.9562 6.352C16.5562 6.352 17.8842 6.968 18.9402 8.2C20.0122 9.416 20.5482 10.904 20.5482 12.664V16.888C20.5482 17.256 20.5322 17.536 20.5002 17.728C20.4842 17.904 20.4202 18.104 20.3082 18.328C20.0842 18.76 19.4602 18.976 18.4362 18.976C17.3002 18.976 16.6442 18.68 16.4682 18.088C16.3722 17.816 16.3242 17.408 16.3242 16.864V12.64C16.3242 11.984 16.1322 11.472 15.7482 11.104C15.3802 10.736 14.8762 10.552 14.2362 10.552C13.6122 10.552 13.1002 10.744 12.7002 11.128C12.3162 11.512 12.1242 12.016 12.1242 12.64V16.888C12.1242 17.256 12.1082 17.536 12.0762 17.728C12.0602 17.904 11.9882 18.104 11.8602 18.328C11.6522 18.76 11.0362 18.976 10.0122 18.976C9.00416 18.976 8.38816 18.76 8.16416 18.328C8.05216 18.088 7.98016 17.88 7.94816 17.704C7.93216 17.512 7.92416 17.232 7.92416 16.864V8.368C7.92416 8.016 7.93216 7.752 7.94816 7.576C7.98016 7.384 8.06016 7.176 8.18816 6.952C8.41216 6.552 9.02816 6.352 10.0362 6.352C11.0122 6.352 11.6122 6.536 11.8362 6.904C11.9962 7.176 12.0762 7.504 12.0762 7.888C12.1402 7.776 12.2842 7.616 12.5082 7.408C12.7322 7.2 12.9482 7.032 13.1562 6.904C13.7002 6.536 14.3002 6.352 14.9562 6.352Z" fill="#53A8CB"/>
</svg>
