<svg width="86" height="85" viewBox="0 0 86 85" fill="none" xmlns="http://www.w3.org/2000/svg">
<rect x="0.320801" width="3.99931" height="4" rx="1.99965" fill="#EAEAEA"/>
<rect x="9.31921" width="3.9993" height="4" rx="1.99965" fill="#EAEAEA"/>
<rect x="18.3176" width="3.9993" height="4" rx="1.99965" fill="#EAEAEA"/>
<rect x="27.3162" width="3.99931" height="4" rx="1.99965" fill="#EAEAEA"/>
<rect x="36.3146" width="3.99931" height="4" rx="1.99965" fill="#EAEAEA"/>
<rect x="45.313" width="3.99931" height="4" rx="1.99965" fill="#EAEAEA"/>
<rect x="54.3114" width="3.99931" height="4" rx="1.99965" fill="#EAEAEA"/>
<rect x="63.3098" width="3.99931" height="4" rx="1.99965" fill="#EAEAEA"/>
<rect x="72.3083" width="3.99931" height="4" rx="1.99965" fill="#EAEAEA"/>
<rect x="81.3068" width="3.99931" height="4" rx="1.99965" fill="#EAEAEA"/>
<rect x="0.320801" y="9" width="3.99931" height="4" rx="1.99965" fill="#EAEAEA"/>
<rect x="9.31921" y="9" width="3.9993" height="4" rx="1.99965" fill="#EAEAEA"/>
<rect x="18.3176" y="9" width="3.9993" height="4" rx="1.99965" fill="#EAEAEA"/>
<rect x="27.3162" y="9" width="3.99931" height="4" rx="1.99965" fill="#EAEAEA"/>
<rect x="36.3146" y="9" width="3.99931" height="4" rx="1.99965" fill="#EAEAEA"/>
<rect x="45.313" y="9" width="3.99931" height="4" rx="1.99965" fill="#EAEAEA"/>
<rect x="54.3114" y="9" width="3.99931" height="4" rx="1.99965" fill="#EAEAEA"/>
<rect x="63.3098" y="9" width="3.99931" height="4" rx="1.99965" fill="#EAEAEA"/>
<rect x="72.3083" y="9" width="3.99931" height="4" rx="1.99965" fill="#EAEAEA"/>
<rect x="81.3068" y="9" width="3.99931" height="4" rx="1.99965" fill="#EAEAEA"/>
<rect x="0.320801" y="18" width="3.99931" height="4" rx="1.99965" fill="#EAEAEA"/>
<rect x="9.31921" y="18" width="3.9993" height="4" rx="1.99965" fill="#EAEAEA"/>
<rect x="18.3176" y="18" width="3.9993" height="4" rx="1.99965" fill="#EAEAEA"/>
<rect x="27.3162" y="18" width="3.99931" height="4" rx="1.99965" fill="#EAEAEA"/>
<rect x="36.3146" y="18" width="3.99931" height="4" rx="1.99965" fill="#EAEAEA"/>
<rect x="45.313" y="18" width="3.99931" height="4" rx="1.99965" fill="#EAEAEA"/>
<rect x="54.3114" y="18" width="3.99931" height="4" rx="1.99965" fill="#EAEAEA"/>
<rect x="63.3098" y="18" width="3.99931" height="4" rx="1.99965" fill="#EAEAEA"/>
<rect x="72.3083" y="18" width="3.99931" height="4" rx="1.99965" fill="#EAEAEA"/>
<rect x="81.3068" y="18" width="3.99931" height="4" rx="1.99965" fill="#EAEAEA"/>
<rect x="0.320801" y="27" width="3.99931" height="4" rx="1.99965" fill="#EAEAEA"/>
<rect x="9.31921" y="27" width="3.9993" height="4" rx="1.99965" fill="#EAEAEA"/>
<rect x="18.3176" y="27" width="3.9993" height="4" rx="1.99965" fill="#EAEAEA"/>
<rect x="27.3162" y="27" width="3.99931" height="4" rx="1.99965" fill="#EAEAEA"/>
<rect x="36.3146" y="27" width="3.99931" height="4" rx="1.99965" fill="#EAEAEA"/>
<rect x="45.313" y="27" width="3.99931" height="4" rx="1.99965" fill="#EAEAEA"/>
<rect x="54.3114" y="27" width="3.99931" height="4" rx="1.99965" fill="#EAEAEA"/>
<rect x="63.3098" y="27" width="3.99931" height="4" rx="1.99965" fill="#EAEAEA"/>
<rect x="72.3083" y="27" width="3.99931" height="4" rx="1.99965" fill="#EAEAEA"/>
<rect x="81.3068" y="27" width="3.99931" height="4" rx="1.99965" fill="#EAEAEA"/>
<rect x="0.320801" y="36" width="3.99931" height="4" rx="1.99965" fill="#EAEAEA"/>
<rect x="9.31921" y="36" width="3.9993" height="4" rx="1.99965" fill="#EAEAEA"/>
<rect x="18.3176" y="36" width="3.9993" height="4" rx="1.99965" fill="#EAEAEA"/>
<rect x="27.3162" y="36" width="3.99931" height="4" rx="1.99965" fill="#EAEAEA"/>
<rect x="36.3146" y="36" width="3.99931" height="4" rx="1.99965" fill="#EAEAEA"/>
<rect x="45.313" y="36" width="3.99931" height="4" rx="1.99965" fill="#EAEAEA"/>
<rect x="54.3114" y="36" width="3.99931" height="4" rx="1.99965" fill="#EAEAEA"/>
<rect x="63.3098" y="36" width="3.99931" height="4" rx="1.99965" fill="#EAEAEA"/>
<rect x="72.3083" y="36" width="3.99931" height="4" rx="1.99965" fill="#EAEAEA"/>
<rect x="81.3068" y="36" width="3.99931" height="4" rx="1.99965" fill="#EAEAEA"/>
<rect x="0.320801" y="45" width="3.99931" height="4" rx="1.99965" fill="#EAEAEA"/>
<rect x="9.31921" y="45" width="3.9993" height="4" rx="1.99965" fill="#EAEAEA"/>
<rect x="18.3176" y="45" width="3.9993" height="4" rx="1.99965" fill="#EAEAEA"/>
<rect x="27.3162" y="45" width="3.99931" height="4" rx="1.99965" fill="#EAEAEA"/>
<rect x="36.3146" y="45" width="3.99931" height="4" rx="1.99965" fill="#EAEAEA"/>
<rect x="45.313" y="45" width="3.99931" height="4" rx="1.99965" fill="#EAEAEA"/>
<rect x="54.3114" y="45" width="3.99931" height="4" rx="1.99965" fill="#EAEAEA"/>
<rect x="63.3098" y="45" width="3.99931" height="4" rx="1.99965" fill="#EAEAEA"/>
<rect x="72.3083" y="45" width="3.99931" height="4" rx="1.99965" fill="#EAEAEA"/>
<rect x="81.3068" y="45" width="3.99931" height="4" rx="1.99965" fill="#EAEAEA"/>
<rect x="0.320801" y="54" width="3.99931" height="4" rx="1.99965" fill="#EAEAEA"/>
<rect x="9.31921" y="54" width="3.9993" height="4" rx="1.99965" fill="#EAEAEA"/>
<rect x="18.3176" y="54" width="3.9993" height="4" rx="1.99965" fill="#EAEAEA"/>
<rect x="27.3162" y="54" width="3.99931" height="4" rx="1.99965" fill="#EAEAEA"/>
<rect x="36.3146" y="54" width="3.99931" height="4" rx="1.99965" fill="#EAEAEA"/>
<rect x="45.313" y="54" width="3.99931" height="4" rx="1.99965" fill="#EAEAEA"/>
<rect x="54.3114" y="54" width="3.99931" height="4" rx="1.99965" fill="#EAEAEA"/>
<rect x="63.3098" y="54" width="3.99931" height="4" rx="1.99965" fill="#EAEAEA"/>
<rect x="72.3083" y="54" width="3.99931" height="4" rx="1.99965" fill="#EAEAEA"/>
<rect x="81.3068" y="54" width="3.99931" height="4" rx="1.99965" fill="#EAEAEA"/>
<rect x="0.320801" y="63" width="3.99931" height="4" rx="1.99965" fill="#EAEAEA"/>
<rect x="9.31921" y="63" width="3.9993" height="4" rx="1.99965" fill="#EAEAEA"/>
<rect x="18.3176" y="63" width="3.9993" height="4" rx="1.99965" fill="#EAEAEA"/>
<rect x="27.3162" y="63" width="3.99931" height="4" rx="1.99965" fill="#EAEAEA"/>
<rect x="36.3146" y="63" width="3.99931" height="4" rx="1.99965" fill="#EAEAEA"/>
<rect x="45.313" y="63" width="3.99931" height="4" rx="1.99965" fill="#EAEAEA"/>
<rect x="54.3114" y="63" width="3.99931" height="4" rx="1.99965" fill="#EAEAEA"/>
<rect x="63.3098" y="63" width="3.99931" height="4" rx="1.99965" fill="#EAEAEA"/>
<rect x="72.3083" y="63" width="3.99931" height="4" rx="1.99965" fill="#EAEAEA"/>
<rect x="81.3068" y="63" width="3.99931" height="4" rx="1.99965" fill="#EAEAEA"/>
<rect x="0.320801" y="72" width="3.99931" height="4" rx="1.99965" fill="#EAEAEA"/>
<rect x="9.31921" y="72" width="3.9993" height="4" rx="1.99965" fill="#EAEAEA"/>
<rect x="18.3176" y="72" width="3.9993" height="4" rx="1.99965" fill="#EAEAEA"/>
<rect x="27.3162" y="72" width="3.99931" height="4" rx="1.99965" fill="#EAEAEA"/>
<rect x="36.3146" y="72" width="3.99931" height="4" rx="1.99965" fill="#EAEAEA"/>
<rect x="45.313" y="72" width="3.99931" height="4" rx="1.99965" fill="#EAEAEA"/>
<rect x="54.3114" y="72" width="3.99931" height="4" rx="1.99965" fill="#EAEAEA"/>
<rect x="63.3098" y="72" width="3.99931" height="4" rx="1.99965" fill="#EAEAEA"/>
<rect x="72.3083" y="72" width="3.99931" height="4" rx="1.99965" fill="#EAEAEA"/>
<rect x="81.3068" y="72" width="3.99931" height="4" rx="1.99965" fill="#EAEAEA"/>
<rect x="0.320801" y="81" width="3.99931" height="4" rx="1.99965" fill="#EAEAEA"/>
<rect x="9.31921" y="81" width="3.9993" height="4" rx="1.99965" fill="#EAEAEA"/>
<rect x="18.3176" y="81" width="3.9993" height="4" rx="1.99965" fill="#EAEAEA"/>
<rect x="27.3162" y="81" width="3.99931" height="4" rx="1.99965" fill="#EAEAEA"/>
<rect x="36.3146" y="81" width="3.99931" height="4" rx="1.99965" fill="#EAEAEA"/>
<rect x="45.313" y="81" width="3.99931" height="4" rx="1.99965" fill="#EAEAEA"/>
<rect x="54.3114" y="81" width="3.99931" height="4" rx="1.99965" fill="#EAEAEA"/>
<rect x="63.3098" y="81" width="3.99931" height="4" rx="1.99965" fill="#EAEAEA"/>
<rect x="72.3083" y="81" width="3.99931" height="4" rx="1.99965" fill="#EAEAEA"/>
<rect x="81.3068" y="81" width="3.99931" height="4" rx="1.99965" fill="#EAEAEA"/>
</svg>
