<svg width="174" height="201" viewBox="0 0 174 201" fill="none" xmlns="http://www.w3.org/2000/svg">
<path fill-rule="evenodd" clip-rule="evenodd" d="M73.2632 0V33.1793V36.8356L69.6975 37.6447C35.0327 45.5106 9.1579 76.518 9.1579 113.558C9.1579 156.549 44.009 191.4 87 191.4C129.991 191.4 164.842 156.549 164.842 113.558C164.842 76.518 138.967 45.5106 104.303 37.6447L100.737 36.8356V33.1793V0H109.895H123.632C126.16 0 128.211 2.05006 128.211 4.57895C128.211 7.10783 126.16 9.1579 123.632 9.1579H109.895V29.603C146.835 39.6545 174 73.4287 174 113.558C174 161.607 135.049 200.558 87 200.558C38.9512 200.558 0 161.607 0 113.558C0 73.4287 27.1651 39.6545 64.1053 29.603V9.1579H50.3684C47.8395 9.1579 45.7895 7.10783 45.7895 4.57895C45.7895 2.05006 47.8395 0 50.3684 0H64.1053H73.2632Z" fill="#EC99BA"/>
<circle cx="45.7895" cy="76.9263" r="4.57895" fill="#53A8CB"/>
<circle cx="128.211" cy="76.9263" r="4.57895" fill="#53A8CB"/>
<rect x="82.421" y="72.3474" width="9.1579" height="9.1579" fill="#53A8CB"/>
<rect x="119.053" y="108.979" width="9.1579" height="9.1579" fill="#53A8CB"/>
<path d="M123.632 113.558C123.632 93.3268 107.231 76.9263 87 76.9263C66.7689 76.9263 50.3684 93.3268 50.3684 113.558" stroke="#53A8CB" stroke-width="1.83158"/>
<rect x="45.7894" y="108.979" width="9.1579" height="9.1579" fill="#53A8CB"/>
<rect x="49.9105" y="76.0105" width="74.1789" height="1.83158" fill="#53A8CB"/>
<path fill-rule="evenodd" clip-rule="evenodd" d="M91.1211 83.7947H87.4579V113.58C89.7718 113.81 91.5789 115.762 91.5789 118.137C91.5789 120.511 89.7718 122.463 87.4579 122.693V134.163H98.4474C98.4474 134.163 99.3977 128.406 100.279 124.776C101.18 121.065 103.026 115.389 103.026 115.389C103.026 115.389 96.2277 106.321 93.8684 99.592C91.7967 93.6828 91.1211 83.7947 91.1211 83.7947ZM86.5421 113.58C84.2282 113.81 82.4211 115.762 82.4211 118.137C82.4211 120.511 84.2282 122.463 86.5421 122.693V134.163H75.5526C75.5526 134.163 74.6023 128.406 73.721 124.776C72.8198 121.065 70.9736 115.389 70.9736 115.389C70.9736 115.389 77.7723 106.321 80.1315 99.5921C82.2032 93.6829 82.8789 83.7947 82.8789 83.7947H86.5421V113.58Z" fill="#53A8CB"/>
<rect x="73.2632" y="135.079" width="27.4737" height="27.4737" fill="#53A8CB"/>
</svg>
